<?xml version="1.0" encoding="UTF-8"?>
<!DOCTYPE svg PUBLIC "-//W3C//DTD SVG 1.1//EN" "http://www.w3.org/Graphics/SVG/1.1/DTD/svg11.dtd">
<!-- Creator: CorelDRAW -->
<svg xmlns="http://www.w3.org/2000/svg" xml:space="preserve" width="3508px" height="2480px" style="shape-rendering:geometricPrecision; text-rendering:geometricPrecision; image-rendering:optimizeQuality; fill-rule:evenodd; clip-rule:evenodd"
viewBox="0 0 3508 2480.4"
 xmlns:xlink="http://www.w3.org/1999/xlink">
 <defs>
  <style type="text/css">
   <![CDATA[
    .fil1 {fill:#008F45}
    .fil0 {fill:#AFEE8E}
   ]]>
  </style>
 </defs>
 <g id="Warstwa_x0020_1">
  <metadata id="CorelCorpID_0Corel-Layer"/>
  <path class="fil0" d="M2164.91 927.939c-22.4973,22.3709 -61.5495,80.2045 -83.8802,109.828 -28.7987,38.2053 -52.509,73.5924 -79.6222,112.11 -53.3653,75.8106 -104.944,152.413 -156.659,230.868 -51.4885,78.1103 -100.158,155.441 -151.191,236.248 -18.7778,29.733 -137.417,230.76 -144.99,237.824 -98.9185,-161.552 -215.499,-336.887 -326.574,-489.536 -22.8351,-31.3818 -44.7429,-63.5574 -67.6394,-94.8471 -23.6607,-32.3362 -44.6508,-63.4062 -67.8461,-94.7148 -14.1655,-19.1204 -59.7766,-78.7351 -67.3111,-96.2007l124.939 -120.748 202.981 139.654c66.4748,47.2233 133.99,94.951 199.986,138.489l162.938 -199.297c18.2948,-22.1677 37.049,-40.5404 54.1803,-62.4814 39.8022,-50.977 219.679,-229.019 228.854,-244.693 -12.2591,-6.36046 -32.5181,-24.2465 -47.5954,-34.4634 -312.128,-211.51 -731.261,-142.67 -967.679,146.945 -96.7346,118.501 -155.591,273.988 -160.034,433.268 -4.95726,177.643 65.6468,383.483 180.743,500.094 66.4264,67.3004 98.9764,100.283 186.444,151.093 512.433,297.677 1171.3,-137.638 1070.73,-749.91 -16.7132,-101.76 -48.4565,-171.334 -90.7745,-249.527z"/>
  <path class="fil1" d="M1993.08 730.44c-9.17513,15.6738 -189.052,193.716 -228.854,244.693 -17.1313,21.9409 -35.8855,40.3137 -54.1803,62.4814l-162.938 199.297c-65.9953,-43.5382 -133.511,-91.2659 -199.986,-138.489l-202.981 -139.654 -124.939 120.748c7.53452,17.4656 53.1456,77.0803 67.3111,96.2007 23.1953,31.3086 44.1854,62.3786 67.8461,94.7148 22.8965,31.2897 44.8044,63.4653 67.6394,94.8471 111.075,152.649 227.655,327.984 326.574,489.536 7.5735,-7.06325 126.212,-208.091 144.99,-237.824 51.0337,-80.8068 99.7028,-158.138 151.191,-236.248 51.7152,-78.4552 103.293,-155.057 156.659,-230.868 27.1132,-38.5171 50.8235,-73.9042 79.6222,-112.11 22.3307,-29.6231 61.3829,-87.4567 83.8802,-109.828 18.6018,-45.7658 252.652,-314.695 313.068,-380.674 11.3673,-12.4138 19.7854,-22.965 30.998,-35.8348l176.723 -171.841 -199.767 -0.581123c-45.9595,2.24063 -257.031,180.602 -312.244,228.769l-108.829 95.5865c-18.0987,16.1203 -48.9502,53.6901 -71.7841,67.076z"/>
 </g>
</svg>
