<?xml version="1.0" encoding="UTF-8"?>
<!DOCTYPE svg PUBLIC "-//W3C//DTD SVG 1.1//EN" "http://www.w3.org/Graphics/SVG/1.1/DTD/svg11.dtd">
<!-- Creator: CorelDRAW -->
<svg xmlns="http://www.w3.org/2000/svg" xml:space="preserve" width="92px" height="94px" style="shape-rendering:geometricPrecision; text-rendering:geometricPrecision; image-rendering:optimizeQuality; fill-rule:evenodd; clip-rule:evenodd"
viewBox="0 0 11.7634 11.9499"
 xmlns:xlink="http://www.w3.org/1999/xlink">
 <defs>
  <style type="text/css">
   <![CDATA[
    .fil0 {fill:#2B2A29;fill-rule:nonzero}
   ]]>
  </style>
 </defs>
 <g id="Warstwa_x0020_1">
  <metadata id="CorelCorpID_0Corel-Layer"/>
  <path class="fil0" d="M6.52087 8.25917c-0.269211,0.311576 -0.570272,0.561708 -0.90303,0.748294 -0.332909,0.188688 -0.667771,0.284084 -1.00278,0.284084 -0.368814,0 -0.727111,-0.108165 -1.07474,-0.324346 -0.347631,-0.214077 -0.629612,-0.544883 -0.848046,-0.992116 -0.21618,-0.447233 -0.326449,-0.939085 -0.326449,-1.4733 0,-0.657254 0.169609,-1.31646 0.506724,-1.97792 0.336965,-0.659358 0.756706,-1.15542 1.25712,-1.48607 0.502368,-0.332759 0.98776,-0.498161 1.46053,-0.498161 0.360401,0 0.703826,0.0953958 1.03027,0.284084 0.328702,0.186585 0.60843,0.474876 0.845943,0.858562l0.209871 -0.962521 1.1129 0 -0.894617 4.16782c-0.124991,0.578684 -0.186585,0.900927 -0.186585,0.962371 0,0.112372 0.042515,0.207768 0.127244,0.288441 0.0847295,0.0805231 0.186585,0.120785 0.30737,0.120785 0.220537,0 0.506724,-0.125141 0.862769,-0.377377 0.472773,-0.332759 0.845943,-0.775936 1.12146,-1.33344 0.275671,-0.555399 0.413432,-1.12988 0.413432,-1.72343 0,-0.691056 -0.178022,-1.33764 -0.532113,-1.93766 -0.354091,-0.599867 -0.881848,-1.07895 -1.58357,-1.43935 -0.701722,-0.360401 -1.4754,-0.540676 -2.32555,-0.540676 -0.968831,0 -1.85278,0.226847 -2.65411,0.68054 -0.801325,0.45159 -1.42252,1.10238 -1.86345,1.94818 -0.440924,0.848046 -0.661461,1.75528 -0.661461,2.72411 0,1.0154 0.220537,1.88884 0.661461,2.62015 0.440924,0.733571 1.0791,1.2762 1.91212,1.62609 0.835277,0.349734 1.75964,0.52355 2.77294,0.52355 1.08541,0 1.99475,-0.182228 2.72622,-0.546986 0.733421,-0.364607 1.28251,-0.807634 1.64712,-1.32908l1.12357 0c-0.211974,0.434614 -0.572375,0.877641 -1.08751,1.32908 -0.513034,0.45159 -1.12357,0.809888 -1.8316,1.07279 -0.708032,0.262902 -1.56028,0.394202 -2.55871,0.394202 -0.920156,0 -1.76595,-0.118681 -2.54399,-0.353941 -0.775786,-0.237513 -1.43725,-0.591454 -1.98423,-1.06633 -0.546836,-0.472773 -0.958164,-1.01976 -1.23594,-1.6366 -0.347631,-0.782245 -0.521447,-1.62593 -0.521447,-2.53332 0,-1.0112 0.207768,-1.97357 0.621199,-2.88726 0.504471,-1.12357 1.22317,-1.98213 2.15174,-2.57779 0.930522,-0.595811 2.0583,-0.894617 3.38332,-0.894617 1.02607,0 1.94818,0.209871 2.76648,0.629612 0.816197,0.421845 1.46279,1.04725 1.9333,1.88027 0.402916,0.714492 0.60212,1.49463 0.60212,2.33412 0,1.20199 -0.421845,2.26621 -1.26553,3.19899 -0.754753,0.835126 -1.57726,1.25487 -2.47188,1.25487 -0.286187,0 -0.51724,-0.044468 -0.693159,-0.131451 -0.176069,-0.0868327 -0.305267,-0.209871 -0.388043,-0.37302 -0.0528808,-0.101705 -0.0932926,-0.279878 -0.118681,-0.534216zm-3.00609 -1.68107c0,0.565915 0.135808,1.00699 0.405019,1.32277 0.269211,0.31383 0.576581,0.470669 0.924212,0.470669 0.233156,0 0.476979,-0.070007 0.733571,-0.207768 0.256442,-0.137761 0.502368,-0.345528 0.735524,-0.616843 0.23541,-0.273568 0.426201,-0.621199 0.574478,-1.04094 0.15053,-0.419741 0.224743,-0.841586 0.224743,-1.26343 0,-0.563962 -0.139864,-1.00068 -0.419741,-1.31226 -0.279878,-0.309473 -0.621049,-0.464209 -1.02171,-0.464209 -0.265005,0 -0.515287,0.0656503 -0.748444,0.201308 -0.233156,0.133554 -0.460003,0.349734 -0.68039,0.648691 -0.218434,0.298957 -0.394353,0.661461 -0.527907,1.08751 -0.131451,0.426051 -0.199355,0.818301 -0.199355,1.17449z"/>
 </g>
</svg>
