<svg width="184" height="156" viewBox="0 0 184 156" fill="none" xmlns="http://www.w3.org/2000/svg">
<path fill-rule="evenodd" clip-rule="evenodd" d="M56.9147 56.3232L41.8796 56.3932L32.1479 67.5869C31.3096 67.0419 25.4448 59.9715 24.0477 58.2685C22.7778 56.7203 23.0104 56.1436 20.481 56.6848L1.4184 60.8353L0 107.128L8.91358 107.27L9.2701 114.338L10.6399 114.354C16.6178 114.388 53.4752 114.575 56.5286 114.242L58.7716 70.0494C59.0712 69.4091 75.4063 61.6414 77.2835 60.7658L96.1534 51.4243L92.1833 39.3953C91.1517 39.7239 84.7425 43.0465 83.4374 43.746L66.168 52.5764C63.6652 53.9248 59.8851 56.3232 56.9147 56.3232Z" fill="#FDC74D"/>
<path fill-rule="evenodd" clip-rule="evenodd" d="M29.3703 0.327896C21.0601 1.79964 16.0613 5.02746 12.4112 9.58565C8.52974 14.4333 5.55645 21.3292 6.67207 29.406C8.54425 42.9578 20.238 53.9617 35.9806 52.0371C49.1072 50.4324 60.6855 37.9227 58.3875 22.6054C56.1739 7.84999 42.2217 -1.94816 29.3703 0.327896Z" fill="#FDC74D"/>
<path fill-rule="evenodd" clip-rule="evenodd" d="M69.9561 155.429H116.412L115.308 124.14L100.232 119.536C98.9851 121.104 94.8295 126.703 93.4129 127.528L86.2436 119.65L69.9813 124.08L69.9561 155.429Z" fill="#FDC74D"/>
<path fill-rule="evenodd" clip-rule="evenodd" d="M136.898 123.468L136.862 154.682L182.807 154.693L182.688 149.492L181.907 123.63L166.682 119.169C165.497 121.271 161.637 125.165 159.849 127.052L153.049 119.23C151.401 119.339 139.252 122.752 136.898 123.468Z" fill="#FDC74D"/>
<path fill-rule="evenodd" clip-rule="evenodd" d="M89.4758 80.0004C80.5215 81.7553 72.746 90.6989 75.0426 102.125C76.7959 110.85 85.8652 118.441 96.9553 116.322C105.859 114.621 113.49 105.465 111.337 94.4328C109.64 85.7339 100.678 77.805 89.4758 80.0004Z" fill="#FDC74D"/>
<path fill-rule="evenodd" clip-rule="evenodd" d="M156.969 79.3728C147.472 80.8718 140.036 89.1715 141.462 100.49C142.637 109.818 151.852 117.687 163.105 115.925C172.13 114.512 179.317 105.666 178.057 94.9291C176.963 85.5999 167.779 77.6663 156.969 79.3728Z" fill="#FDC74D"/>
<path fill-rule="evenodd" clip-rule="evenodd" d="M126.515 93.6233C125.392 93.2211 125.735 93.3744 124.834 92.3702L121.193 87.8685L112.888 87.8608C113.436 91.6503 115.765 94.3273 114.447 102.569C113.731 107.052 111.619 110.28 109.493 114.097L142.897 114.01C142.698 111.769 137.317 103.769 139.133 94.3504L140.544 87.8101L131.215 87.8599C130.075 89.1849 127.142 92.2627 126.515 93.6233Z" fill="#FDC74D"/>
<path fill-rule="evenodd" clip-rule="evenodd" d="M123.445 58.8692C116.787 60.1095 111.129 66.3875 112.648 74.8936C113.783 81.2419 120.594 87.2211 128.777 85.484C135.063 84.1497 140.978 77.6274 139.234 69.4923C137.861 63.0857 131.7 57.3315 123.445 58.8692Z" fill="#FDC74D"/>
<path fill-rule="evenodd" clip-rule="evenodd" d="M157.161 44.646C140.329 48.5371 145.71 73.1219 162.583 69.7803C168.952 68.5192 173.98 61.7903 172.316 54.3369C170.99 48.3994 164.827 42.8743 157.161 44.646Z" fill="#FDC74D"/>
<path fill-rule="evenodd" clip-rule="evenodd" d="M182.688 149.492L182.807 154.693L136.862 154.681L136.898 123.468C136.22 123.88 136.643 123.335 136.433 124.161C136.214 125.026 136.564 154.313 136.573 155.075L182.931 154.987C183.373 153.5 183.204 150.663 182.688 149.492Z" fill="#FDC74D"/>
</svg>
