<svg width="165" height="200" viewBox="0 0 165 200" fill="none" xmlns="http://www.w3.org/2000/svg">
<path fill-rule="evenodd" clip-rule="evenodd" d="M105.68 92.2453C106.566 91.939 108.849 92.0319 109.146 92.0666C112.918 92.5071 109.981 91.7878 111.435 93.1591L110.631 96.6799C106.36 98.0388 105.295 96.1033 105.68 92.2453ZM72.9771 94.4597C72.1137 97.6232 73.4713 95.4618 71.5167 96.3978C71.3943 96.4561 66.9204 98.0499 66.3542 94.3399C65.9072 91.4068 68.2891 90.2424 70.1821 90.3838C72.3991 90.55 71.5959 90.8073 72.1392 91.1345L67.6103 93.9053L68.8481 95.2105C68.9129 95.2661 69.1374 95.5711 69.1865 95.469C69.2376 95.363 69.4333 95.634 69.5504 95.725C70.3287 94.5684 69.879 95.2137 70.766 94.5415C68.7761 95.0894 69.5864 94.5278 68.7558 93.6395C73.3534 93.3967 71.8787 93.5538 72.9771 94.4597ZM47.8977 91.5777C46.5971 94.3216 45.8011 99.8461 44.1608 102.192L42.9937 90.4754C52.3362 77.595 52.4482 80.0169 47.8977 91.5777ZM58.0786 69.7606C54.1454 71.9789 56.5666 70.0794 52.9181 72.6014C47.4781 74.573 42.1022 83.0102 39.5187 88.7029C37.1158 93.9976 34.5375 108.336 36.3486 115.109C38.1506 117.17 40.0534 119.089 42.0492 120.953C44.2282 122.987 45.5458 124.379 48.5555 126.661C53.051 130.069 58.4727 133.892 63.5468 136.344L61.8142 126.69C59.2163 126.344 56.1707 126.941 54.6907 124.948C53.2899 123.063 53.4379 119.347 54.9204 117.414C56.545 115.294 59.7642 115.61 61.0798 117.463L63.1934 124.697L87.3884 123.198L94.8373 115.803C96.8645 117.418 97.0798 119.91 95.1718 122.174L89.2297 124.94C87.2026 130.987 86.8007 142.179 86.3673 149.187L87.3269 143.802C91.2719 145.549 102.392 145.187 105.905 143.444L106.087 144.245C109.926 140.601 114.079 124.985 115.248 117.806C116.08 112.701 116.258 106.019 115.49 100.79C114.828 96.284 113.374 89.9813 111.231 87.5705C102.93 75.3185 96.227 70.6711 80.3298 67.1843C73.1741 66.1383 63.6437 67.2419 58.0786 69.7606Z" fill="#F4BE2C"/>
<path fill-rule="evenodd" clip-rule="evenodd" d="M148.174 82.145C149.096 82.1142 153.487 83.3088 157.268 85.0381L155.001 97.8465C153.866 96.271 153.368 91.1399 152.829 88.862C151.676 83.9921 151.61 85.131 147.825 82.8336C148.518 81.7025 148.248 82.3335 148.174 82.145ZM103.795 48.7043C107.351 51.1438 111.476 54.6209 115.372 57.4544C116.628 58.1155 117.326 58.7917 118.368 59.5987C119.88 60.7691 119.882 60.9432 120.971 62.395C121.069 62.5253 121.193 62.719 121.32 62.8676C121.816 61.1874 121.663 62.1142 123.41 63.3605C124.503 64.1407 125.21 64.701 126.284 65.5369C127.181 66.2347 130.374 68.8358 130.878 70.0919C134.654 71.6275 136.97 74.9252 141.818 77.222C145.772 79.0947 144.704 79.0365 145.126 80.3083C144.29 79.9319 140.899 78.1692 140.733 78.6516L139.25 79.2289C138.451 79.3998 137.59 79.3336 136.777 79.2996L139.036 80.6048C137.793 86.2779 133.351 97.9349 131.266 106.775C130.932 108.191 130.718 109.488 129.901 110.626L129.82 113.587C129.58 115.974 129.718 115.657 131.034 117.147C133.902 117.499 140.151 119.696 144.019 120.478C148.561 121.395 154.701 121.687 158.819 122.647C162.629 114.855 162.963 105.494 163.9 95.5804C164.35 90.829 164.92 85.328 163.351 81.1107C161.519 76.1878 159.537 75.6315 155.503 72.8293C153.602 71.9339 148.964 69.3025 147.289 68.0046C143.16 65.9191 123.734 54.1731 122.389 51.748C117.599 50.956 111.914 43.1681 106.935 44.3554C106.624 45.6541 106.723 45.8014 105.907 47.0188C104.575 49.0054 105.556 47.9496 103.795 48.7043Z" fill="#3982C2"/>
<path fill-rule="evenodd" clip-rule="evenodd" d="M68.5462 46.1931C66.4758 45.477 67.0826 44.7746 67.0891 41.8474C67.0989 37.456 66.7919 34.2552 67.1559 29.689C67.3444 27.3202 67.057 26.6951 69.0999 26.2991C69.1588 29.5326 70.2703 44.5115 68.5462 46.1931ZM64.2313 34.2873C65.2897 36.7753 64.7098 40.5842 64.7203 44.0324C64.7281 46.7894 64.1816 51.9911 66.3265 53.4279L65.9135 51.2692C73.0606 48.4585 89.2033 44.2543 97.7866 47.1435L97.3834 44.4507C100.649 42.957 103.824 43.2319 106.934 44.3551C111.914 43.1677 117.599 50.9557 122.388 51.7476C122.579 48.6385 121.997 44.507 123.295 42.106C121.452 41.1379 121.863 34.7959 121.633 32.5239C121.186 28.1266 121.435 27.7221 117.55 25.5228C105.977 18.9713 94.6656 16.3943 80.8944 19.3582C76.3616 20.3341 68.251 23.0911 65.0986 26.072C64.3112 27.8164 66.0785 33.9483 64.2313 34.2873Z" fill="#4D5558"/>
<path fill-rule="evenodd" clip-rule="evenodd" d="M44.801 17.9425C43.611 18.8583 43.9775 19.2307 44.0292 21.0229C48.3545 22.584 60.8631 33.722 64.2315 34.2875C66.0787 33.9484 64.3114 27.8165 65.0988 26.0722C68.2512 23.0913 76.3618 20.3343 80.8946 19.3584C94.6658 16.3945 105.977 18.9715 117.55 25.523C121.435 27.7223 121.186 28.1268 121.633 32.5241C121.863 34.7961 121.452 41.1381 123.295 42.1062C124.671 42.1154 143.328 37.5917 146.073 33.7187C144.145 34.1422 144.179 33.6342 142.629 32.5614C128.981 23.107 115.987 13.4843 101.489 4.42722C98.546 2.58857 98.0675 2.91323 94.3844 3.89049C85.5884 6.22464 47.7399 16.6243 45.3652 19.0697L44.801 17.9425Z" fill="#31383E"/>
<path fill-rule="evenodd" clip-rule="evenodd" d="M131.394 144.504L134.731 176.363C148.868 182.235 145.773 199.582 141.632 154.747L142.528 126.866C146.973 128.257 148.628 154.386 148.658 160.079C150.235 172.983 151.305 186.421 151.775 191.523L154.183 193.106C153.105 194.807 152.582 194.598 150.429 195.131L146.551 197.539C147.419 198.054 145.899 197.636 147.873 198.015C148.5 198.136 148.783 198.15 149.425 198.181L160.754 197.767C160.113 174.774 157.917 165.67 158.65 160.119C160.559 150.068 157.04 132.386 158.819 122.647C154.701 121.687 148.561 121.395 144.019 120.478C140.15 119.696 133.901 117.499 131.034 117.147L131.394 144.504Z" fill="#31383E"/>
<path fill-rule="evenodd" clip-rule="evenodd" d="M61.7997 162.009L84.6404 161.348L84.4944 147.605L84.4676 143.23C81.7879 142.324 77.674 141.621 74.8568 140.751C71.6239 139.752 69.1988 138.451 66.2108 137.647L65.9306 138.138C65.9083 142.091 67.1376 146.064 67.8681 150.061C68.2458 152.128 68.592 154.042 69.0476 156.19C69.5333 158.483 70.2985 160.115 69.1 161.811L63.5467 136.344C58.4726 133.892 53.0509 130.069 48.5554 126.661C45.5457 124.379 44.2281 122.987 42.0491 120.953C40.0533 119.089 38.1505 117.17 36.3485 115.109C36.9448 124.933 40.738 135.4 44.6751 142.761C48.9762 150.801 56.1377 156.741 61.7997 162.009Z" fill="#F4A22C"/>
<path fill-rule="evenodd" clip-rule="evenodd" d="M66.3268 53.4279C66.5977 54.5341 65.8109 53.6898 67.647 54.8608C70.671 56.7897 83.0114 59.0728 86.2816 59.5821C95.6437 61.0398 101.88 60.8061 111.223 59.497C112.681 59.0696 114.882 58.8418 115.372 57.4541C111.476 54.6205 107.351 51.1435 103.794 48.704L97.7867 47.1435C89.2035 44.2543 73.0609 48.4586 65.9137 51.2692L66.3268 53.4279Z" fill="#1A1E21"/>
<path fill-rule="evenodd" clip-rule="evenodd" d="M6.06049 198.094L136.465 200C134.853 198.443 133.209 198.834 130.062 198.909L128.953 196.144C115.029 195.981 10.8923 194.587 6.06049 198.094Z" fill="#D7CEC3"/>
<path fill-rule="evenodd" clip-rule="evenodd" d="M65.9304 138.138L66.2106 137.647C69.1987 138.45 71.6238 139.752 74.8566 140.751C77.6738 141.621 81.7877 142.323 84.4675 143.229L84.4943 147.604L86.8769 125.352L63.881 126.927C63.8973 129.792 64.7752 136.102 65.9304 138.138Z" fill="#F4BE2C"/>
<path fill-rule="evenodd" clip-rule="evenodd" d="M111.223 59.4971C112.444 63.4002 115.955 74.2999 120.069 76.0868L122.536 77.2153C122.634 77.2677 122.812 77.3606 122.936 77.4536L126.041 77.6178C129.36 78.4426 133.389 79.6745 136.777 79.2994C137.59 79.3334 138.451 79.3996 139.25 79.2287L140.732 78.6514C140.899 78.169 144.29 79.9317 145.126 80.3081C144.704 79.0363 145.772 79.0945 141.818 77.2218C136.97 74.925 134.653 71.6274 130.877 70.0917C128.925 69.049 126.084 69.4765 124.419 67.9723C123.099 66.779 122.494 64.1327 121.32 62.8674C121.193 62.7188 121.069 62.5251 120.971 62.3948C119.881 60.943 119.879 60.7689 118.368 59.5985C117.326 58.7915 116.628 58.1153 115.372 57.4542C114.883 58.8419 112.681 59.0697 111.223 59.4971Z" fill="#2573AC"/>
<path fill-rule="evenodd" clip-rule="evenodd" d="M46.1975 15.62C45.3806 17.2315 45.4722 16.3839 44.8007 17.9424L45.3649 19.0695C47.7396 16.6241 85.5881 6.22448 94.3841 3.89037C98.0673 2.91311 98.5457 2.58845 101.489 4.4271C115.987 13.4842 128.981 23.1069 142.629 32.5613C144.178 33.6341 144.145 34.1421 146.073 33.7186L146.565 32.4409C139.499 27.6423 132.316 21.9418 124.903 17.0418C117.41 12.0894 110.254 6.91051 102.942 1.86715C97.7609 -1.70608 96.0001 0.603847 89.717 2.55966C84.9866 4.03242 80.1101 5.48685 75.2821 7.02375C69.5056 8.86306 50.9987 15.2305 46.1975 15.62Z" fill="#1A1E21"/>
<path fill-rule="evenodd" clip-rule="evenodd" d="M61.1618 124.689C47.871 126.55 60.8182 107.796 61.1618 124.689V124.689ZM89.3248 123.054C89.4982 121.094 89.9584 117.523 92.4365 117.059C95.2223 116.537 93.9374 117.293 94.3105 117.491L89.3248 123.054ZM63.547 136.344L69.1003 161.811C70.2988 160.115 69.5336 158.483 69.0479 156.19C68.5923 154.042 68.2461 152.127 67.8684 150.061C67.1379 146.063 65.9086 142.09 65.9309 138.137C64.7756 136.102 63.8979 129.792 63.8815 126.927L86.8774 125.352L84.4948 147.604L84.6408 161.347L86.2333 161.328L86.3675 149.186C86.8008 142.179 87.2027 130.987 89.2299 124.939L95.172 122.173C97.08 119.909 96.8646 117.417 94.8375 115.802L87.3886 123.198L63.1936 124.697L61.08 117.462C59.7643 115.609 56.5452 115.294 54.9206 117.413C53.438 119.347 53.2901 123.062 54.6908 124.948C56.1708 126.94 59.2165 126.344 61.8144 126.69L63.547 136.344Z" fill="#FEF7C9"/>
<path fill-rule="evenodd" clip-rule="evenodd" d="M86.3671 149.187L86.2329 161.328L93.9155 161.514C95.0059 159.554 98.4889 156.338 100.563 153.647C102.702 150.873 105.254 147.563 106.087 144.245L105.904 143.444C102.392 145.187 91.2717 145.549 87.3266 143.802L86.3671 149.187Z" fill="#F4A22C"/>
<path fill-rule="evenodd" clip-rule="evenodd" d="M134.73 176.363C134.512 178.114 135.859 189.225 136.06 189.837L137.832 193.66C135.242 195.365 136.186 193.694 130.373 197.54C133.027 199.029 141.453 197.729 144.33 197.444C145.227 196.307 144.773 195.831 144.707 194.557C144.516 190.883 144.7 193.38 145.298 191.709C146.495 188.364 144.307 178.79 144.384 175.923L143.368 173.542C141.122 176.049 138.813 176.399 135.049 175.062L134.73 176.363Z" fill="#31383E"/>
<path fill-rule="evenodd" clip-rule="evenodd" d="M61.7996 162.01L60.1652 162.357C59.9937 165.112 59.688 165.317 61.202 167.03C64.931 167.963 74.1498 166.948 78.5301 166.841C82.8194 166.736 91.9767 167.728 95.131 165.743C95.582 163.029 95.6723 162.809 93.9155 161.514L86.2329 161.328L84.6404 161.348L61.7996 162.01Z" fill="#4D5558"/>
<path fill-rule="evenodd" clip-rule="evenodd" d="M60.9457 170.361C60.1458 172.844 60.3723 173.947 61.7096 175.321L94.5134 174.362C96.5922 173.486 95.7498 170.737 94.4852 169.74C91.4631 168.884 64.7147 169.784 60.9457 170.361Z" fill="#4D5558"/>
<path fill-rule="evenodd" clip-rule="evenodd" d="M61.6085 178.745C61.5496 182.078 61.1955 183.047 64.141 183.472L92.9664 182.704C95.4661 182.426 94.8744 180.988 94.9582 178.449C90.953 176.357 82.9203 177.646 77.9574 177.745C73.6255 177.832 65.0155 177.345 61.6085 178.745Z" fill="#4D5558"/>
<path fill-rule="evenodd" clip-rule="evenodd" d="M64.1411 183.472C66.2318 188.984 71.1783 190.96 78.5309 190.835C84.8232 190.727 91.1115 188.24 92.9666 182.704L64.1411 183.472Z" fill="#A7A9AC"/>
<path fill-rule="evenodd" clip-rule="evenodd" d="M4.40519 151.957C6.9763 152.736 30.45 143.003 30.543 142.944L32.4694 139.424C30.2641 138.949 28.2187 140.199 25.12 141.348L6.39046 148.528C4.29653 149.43 3.96468 149.316 4.40519 151.957Z" fill="#FDFAF5"/>
<path fill-rule="evenodd" clip-rule="evenodd" d="M49.5813 79.7787C47.5365 81.4642 44.2395 87.3781 42.9939 90.4755L44.161 102.192C45.8013 99.8461 46.5972 94.3217 47.8978 91.5778C48.699 89.8884 49.5257 88.197 50.3655 86.7799C51.2099 85.3536 52.7815 83.6505 53.3778 82.4068C53.9355 80.0196 54.3531 80.0556 53.2142 77.7117L49.5813 79.7787Z" fill="#F9DB87"/>
<path fill-rule="evenodd" clip-rule="evenodd" d="M6.47669 113.366C14.4073 113.364 20.5517 113.819 28.3454 112.926L28.1857 110.393C26.7025 109.9 2.44591 108.971 0.808162 110.577C-2.28266 113.609 4.33825 113.366 6.47669 113.366Z" fill="#FDFAF5"/>
<path fill-rule="evenodd" clip-rule="evenodd" d="M61.7093 175.321C62.14 177.786 62.2395 176.526 61.6085 178.745C65.0155 177.345 73.6255 177.832 77.9574 177.745C82.9203 177.646 90.953 176.357 94.9583 178.448L94.5132 174.362L61.7093 175.321Z" fill="#A7A9AC"/>
<path fill-rule="evenodd" clip-rule="evenodd" d="M61.2023 167.03L60.9457 170.361C64.7146 169.784 91.4631 168.884 94.4852 169.74C94.3543 167.407 94.317 167.186 95.1313 165.743C91.977 167.728 82.8197 166.736 78.5304 166.841C74.1501 166.948 64.9312 167.963 61.2023 167.03Z" fill="#A7A9AC"/>
<path fill-rule="evenodd" clip-rule="evenodd" d="M6.26056 77.2793C7.64953 78.7599 29.8607 89.1143 28.4121 83.5872C28.0089 82.049 15.2476 77.9273 11.0918 76.0461C8.46707 74.8581 6.61402 74.4241 6.26056 77.2793Z" fill="#FDFAF5"/>
<path fill-rule="evenodd" clip-rule="evenodd" d="M37.0082 51.4583C36.0257 55.3457 34.032 60.6863 35.8582 64.2569L40.7608 64.2163C42.0568 62.4424 41.5004 59.5192 41.3185 56.7766L41.5502 55.7051C41.0528 55.0499 41.5934 56.0795 40.8865 54.5164C40.7647 54.2474 40.5023 53.5581 40.4028 53.2799C40.0853 52.393 39.8693 51.6651 39.5885 50.7743C38.6911 50.0327 39.5656 50.3933 38.1426 50.2664L37.0082 51.4583Z" fill="#1A1E21"/>
<path fill-rule="evenodd" clip-rule="evenodd" d="M149.511 61.6191L152.695 65.2709L155.497 64.9482C155.365 65.1786 152.508 67.8452 156.054 69.3828C158.853 67.8911 158.325 64.865 158.466 60.5862C157.201 59.317 158.164 59.9827 156.123 59.4289L148.788 57.7461C148.152 59.9382 147.559 60.2727 149.511 61.6191Z" fill="#31383E"/>
<path fill-rule="evenodd" clip-rule="evenodd" d="M38.1919 49.4073L38.1428 50.2668C39.5659 50.3937 38.6914 50.0331 39.5888 50.7747C39.4683 44.2402 41.8895 26.7498 44.0293 21.0231C43.9776 19.2309 43.611 18.8585 44.801 17.9427C45.4726 16.3842 45.3809 17.2319 46.1978 15.6204C42.3078 15.7271 42.7594 18.0108 42.01 21.3575C41.3489 24.3129 40.7762 27.1379 40.1674 30.1194C39.0043 35.8186 37.8817 42.9311 38.1919 49.4073Z" fill="#FBD363"/>
<path fill-rule="evenodd" clip-rule="evenodd" d="M120.431 173.002C120.878 170.564 119.846 170.019 118.238 168.895C110.23 163.3 113.925 163.828 104.698 161.106C104.616 164.346 109.001 166.137 111.46 167.933C112.917 168.997 113.935 169.799 115.47 171.124C116.955 172.406 117.641 173.764 120.431 173.002Z" fill="#FDFAF5"/>
<path fill-rule="evenodd" clip-rule="evenodd" d="M69.5165 69.9694C70.8472 71.7426 69.5544 69.6205 70.2031 72.4168L74.0879 72.1072L77.5361 72.7009L88.7049 74.4793L89.544 72.4849C84.0012 69.4955 76.1871 69.1957 69.5165 69.9694Z" fill="#F9DB87"/>
<path fill-rule="evenodd" clip-rule="evenodd" d="M131.008 145.346L131.394 144.504L117.276 138.88C116.247 143.117 119.371 142.722 123.103 144.692L130.543 148.882L131.008 145.346Z" fill="#FDFAF5"/>
<path fill-rule="evenodd" clip-rule="evenodd" d="M147.825 82.8333C151.61 85.1308 151.676 83.9919 152.829 88.8617C153.368 91.1396 153.865 96.2707 155 97.8462L157.268 85.0379C153.486 83.3085 151.028 81.5399 148.173 82.1447L147.825 82.8333Z" fill="#2573AC"/>
<path fill-rule="evenodd" clip-rule="evenodd" d="M147.288 68.0042C148.964 69.3022 153.602 71.9336 155.503 72.829L156.054 69.3827C152.508 67.8452 155.365 65.1785 155.497 64.9481L152.695 65.2708L149.511 61.619C149.097 64.505 148.898 63.4132 148.294 65.0456C148.263 65.1294 148.031 66.394 148.004 66.5151C147.633 68.1633 148.882 67.1075 147.288 68.0042Z" fill="#E8AF9B"/>
<path fill-rule="evenodd" clip-rule="evenodd" d="M68.5462 46.1931C70.2703 44.5116 69.1588 29.5327 69.0999 26.2992C67.057 26.6952 67.3444 27.3203 67.1559 29.6892C66.792 34.2553 67.0989 37.4561 67.0891 41.8476C67.0826 44.7748 66.4758 45.4771 68.5462 46.1931Z" fill="#31383E"/>
<path fill-rule="evenodd" clip-rule="evenodd" d="M97.7864 47.1435L103.794 48.704C105.555 47.9493 104.575 49.0051 105.906 47.0185C106.722 45.801 106.624 45.6538 106.934 44.3551C103.824 43.2319 100.649 42.957 97.3832 44.4507L97.7864 47.1435Z" fill="#E8AF9B"/>
<path fill-rule="evenodd" clip-rule="evenodd" d="M85.7537 82.9863C87.6264 84.3648 87.8319 84.77 90.2132 84.1534C94.4194 81.5653 92.0983 76.6954 86.7316 77.8729C85.8205 79.5578 85.3439 80.2896 85.7537 82.9863Z" fill="#F4BE2C"/>
<path fill-rule="evenodd" clip-rule="evenodd" d="M102.483 81.6634C101.57 80.3281 102.977 80.3 101.561 79.7142L101.276 77.8336C100.158 79.0459 99.3426 79.9544 99.7851 82.422C101.662 85.4238 104.326 84.4459 106.737 83.218L102.483 81.6634Z" fill="#F4BE2C"/>
<path fill-rule="evenodd" clip-rule="evenodd" d="M61.1618 124.689C47.8711 126.55 60.8182 107.796 61.1618 124.689V124.689Z" fill="#F4BE2C"/>
<path fill-rule="evenodd" clip-rule="evenodd" d="M129.82 113.587L129.9 110.626C129.292 109.238 127.712 109.767 125.61 109.847C123.579 109.924 122.247 109.586 121.796 111.235C120.936 114.381 127.561 113.396 129.82 113.587Z" fill="#FDFAF5"/>
<path fill-rule="evenodd" clip-rule="evenodd" d="M72.9767 94.4599C71.8784 93.554 73.3531 93.3969 68.7555 93.6397C69.5861 94.528 68.7758 95.0896 70.7656 94.5417C69.8787 95.2139 70.3284 94.5685 69.5501 95.7251C69.433 95.6342 69.2373 95.3632 69.1862 95.4692C69.1371 95.5713 68.9126 95.2663 68.8478 95.2106L67.61 93.9055L72.1389 91.1347C71.5956 90.8074 72.3988 90.5502 70.1818 90.384C68.2888 90.2426 65.9069 91.407 66.3539 94.3401C66.9201 98.0501 71.394 96.4563 71.5164 96.398C73.4709 95.462 72.1134 97.6234 72.9767 94.4599Z" fill="#EAC247"/>
<path fill-rule="evenodd" clip-rule="evenodd" d="M105.68 92.2455C105.295 96.1035 106.36 98.039 110.631 96.6801L111.435 93.1593C109.981 91.788 112.918 92.5073 109.146 92.0668C108.849 92.0321 106.566 91.9392 105.68 92.2455Z" fill="#EAC247"/>
<path fill-rule="evenodd" clip-rule="evenodd" d="M39.5158 166.077C41.6719 165.387 42.0313 164.448 43.8274 163.405C46.3533 161.938 46.6079 162.525 46.2447 159.359C42.5104 158.873 39.4366 161.986 39.5158 166.077Z" fill="#FDFAF5"/>
<path fill-rule="evenodd" clip-rule="evenodd" d="M130.877 70.0916C130.374 68.8355 127.18 66.2344 126.284 65.5366C125.21 64.7007 124.503 64.1404 123.41 63.3602C121.663 62.1139 121.816 61.1871 121.32 62.8673C122.494 64.1326 123.099 66.7789 124.419 67.9722C126.084 69.4764 128.925 69.0489 130.877 70.0916Z" fill="#D6E8F1"/>
<path fill-rule="evenodd" clip-rule="evenodd" d="M40.761 64.2166L35.8584 64.2571C34.2613 68.8083 36.2917 69.2049 41.0019 68.3966L40.761 64.2166Z" fill="#EAC247"/>
<path fill-rule="evenodd" clip-rule="evenodd" d="M126.041 77.6179L122.936 77.4536C119.228 77.8771 119.313 79.5443 118.082 82.622C120.962 83.4068 124.717 80.0529 126.041 77.6179Z" fill="#FDFAF5"/>
<path fill-rule="evenodd" clip-rule="evenodd" d="M37.0082 51.4584L38.1426 50.2664L38.1917 49.407C34.5962 45.4188 39.4923 47.4341 32.501 43.9683C32.103 46.9707 34.1544 51.1141 37.0082 51.4584Z" fill="#FDFAF5"/>
<path fill-rule="evenodd" clip-rule="evenodd" d="M41.5502 55.7056L41.3185 56.7771C43.4242 58.4528 41.7891 61.306 43.4301 63.0877L47.8104 65.9618L41.5502 55.7056Z" fill="#FDFAF5"/>
<path fill-rule="evenodd" clip-rule="evenodd" d="M96.9685 61.8204L96.3755 64.9766C99.4755 65.5841 100.482 63.7454 101.482 61.4636L96.9685 61.8204Z" fill="#FDFAF5"/>
<path fill-rule="evenodd" clip-rule="evenodd" d="M89.325 123.055L94.3107 117.491C93.9376 117.293 95.2225 116.537 92.4367 117.059C89.9586 117.524 89.4984 121.094 89.325 123.055Z" fill="#EAC247"/>
<path fill-rule="evenodd" clip-rule="evenodd" d="M140.952 180.482L141.72 184.042L142.257 182.88L144.8 181.468C143.524 180.46 142.454 179.743 140.952 180.482Z" fill="#31383E"/>
</svg>
