<svg width="285" height="200" viewBox="0 0 285 200" fill="none" xmlns="http://www.w3.org/2000/svg">
<path fill-rule="evenodd" clip-rule="evenodd" d="M218.534 53.986C215.172 51.8051 211.914 50.4064 212.366 44.4763C212.72 39.8332 215.324 37.3606 220.355 37.1176C230.236 36.6395 232.367 48.1222 224.151 53.207C225.665 59.5691 230.226 75.461 229.008 81.1968L213.765 81.0227C212.497 76.8467 214.302 72.9507 215.825 67.528C216.803 64.0446 218.812 57.5558 218.534 53.986ZM185.16 68.7215C184.361 69.3529 184.92 69.1879 183.528 69.5394C181.688 70.0045 181.478 69.3295 179.113 68.5564C178.219 65.5888 177.711 66.6718 178.138 66.5003C178.707 61.9754 176.893 52.8666 178.434 48.4379C178.647 47.8356 178.651 47.4173 179.762 46.2485C180.08 43.468 183.786 35.9735 185.319 34.7594C188.823 31.986 195.101 35.0439 191.656 41.6574C183.34 57.6221 191.698 65.6733 185.16 68.7215ZM204.999 20.2097C210.099 18.3763 213.729 24.0257 210.699 27.7106C209.339 29.364 207.239 29.3191 205.175 30.3787C203.527 31.2239 202.202 32.5525 200.277 33.2099C194.843 35.0654 185.425 27.2461 204.999 20.2097ZM169.268 86.3048C169.271 86.2561 169.268 86.3048 170.514 89.1757C170.224 94.7016 181.874 114.675 184.965 119.494C188.147 124.455 190.677 128.01 194.076 132.935C196.844 136.945 201.109 142.622 202.904 147.407C205.71 146.025 210.941 146.348 214.437 146.195L209.788 110.113C203.552 109.75 198.216 109.017 194.651 104.871C191.873 101.641 188.975 94.0857 192.852 89.609C196.915 84.9178 204.031 87.0942 206.924 91.4859L212.295 107.011L219.913 106.199C218.601 102.053 215.399 100.827 216.752 93.7278C217.554 89.5148 220.618 85.7929 225.874 85.9657C230.937 86.132 233.395 89.8916 233.378 95.1005L228.072 106.473L237.488 106.191C239.676 101.811 237.22 94.9199 240.112 90.6341C243.213 86.0371 248.624 85.4284 252.14 89.7181C257.506 96.266 254.983 103.317 247.505 106.876C244.144 108.475 244.242 107.581 240.78 109.654L237.523 146.385L234.566 146.417C238.377 147.091 242.865 146.67 246.139 147.882C247.401 144.469 253.958 137.622 256.48 134.534C259.993 130.232 264.047 125.181 266.953 120.8C273.82 110.451 278.002 101.951 282.134 88.4993C282.997 85.0471 282.058 85.0451 283.336 82.1307C283.498 80.6482 284.2 70.7701 284.171 66.8404L284.441 58.2689C285.323 51.337 280.488 37.2382 278.102 31.8571C274.581 23.9144 269.875 17.2645 264.021 12.3836C254.078 4.09337 247.623 1.68185 235.505 0.389023C193.219 -4.12154 156.392 30.9632 169.268 86.3048Z" fill="#F3AD34"/>
<path fill-rule="evenodd" clip-rule="evenodd" d="M17.1373 193.652C16.0218 195.89 3.29502 193.714 0 196.31L2.33679 197.034C2.7909 197.114 3.76407 197.173 4.24871 197.216C5.66756 197.341 7.05395 197.468 8.47735 197.572L34.1044 198.702C68.568 200.001 107.224 199.998 141.71 200C165.422 200.001 189.607 199.884 213.215 199.111C225.075 198.722 237.192 198.243 248.987 198.117C254.569 198.057 260.322 197.617 266.014 197.284C268.681 197.128 280.382 196.995 281.14 195.209L237.417 193.099L237.415 192.361C232.411 194.38 230.65 196.281 223.653 196.187C216.938 196.097 215.628 194.398 210.762 192.302C208.732 193.687 152.943 192.496 145.56 192.496C141.293 192.496 83.5602 192.364 80.5021 192.849C81.3232 193.562 81.6169 193.937 84.4773 194.014C86.3613 194.064 87.3625 193.885 89.2588 194.257L82.8376 197.789C79.9791 198.041 76.4489 198.749 73.7184 198.26L73.0323 192.188L70.1648 192.999C69.3819 193.067 67.7955 192.999 66.9126 193.008C53.238 193.132 34.739 193.448 21.8004 194.158L21.4841 193.425C21.4275 193.325 21.2872 193.112 21.2326 193.021L20.5414 192.148C20.5161 195.484 19.4006 194.964 17.1379 193.652L17.1373 193.652Z" fill="#D7C8B3"/>
<path fill-rule="evenodd" clip-rule="evenodd" d="M66.5954 38.5375C77.3479 34.281 82.905 50.9739 72.5878 54.6341C67.2373 56.5324 62.7397 53.3855 61.3215 49.4966C59.5694 44.6911 61.6171 40.5086 66.5954 38.5375ZM55.344 36.801C55.7494 40.469 56.5972 37.9444 57.4924 40.6483L52.8597 43.6361L52.9936 49.5772C52.7168 54.5055 57.9791 59.324 61.4911 61.5062C63.8559 62.9757 65.8236 63.7852 69.6586 63.7345C73.9548 63.678 74.8364 62.3573 77.6851 61.5972C77.7786 59.3701 76.3507 57.7258 78.108 56.8235C79.4372 56.1407 80.6475 57.6323 82.1697 57.874L86.1027 50.6348L109.877 50.9545C110.272 51.5736 110.158 51.163 110.359 52.2733L110.519 57.2646L118.039 57.1529L118.61 50.9558L129.157 50.6037L129.185 64.2926L132.589 64.3907L133.558 50.1002L137.93 49.9372L138.938 63.7892L141.82 64.0555L142.103 52.1993C142.421 48.5891 142.059 51.4886 143.027 50.3133C147.428 48.0096 159.469 53.5194 157.879 43.9486C154.997 41.7625 148.152 41.6911 143.98 42.6188L143.606 45.4461L142.609 42.3063L86.1571 42.1595C84.0509 39.1613 82.2227 32.0762 73.0729 30.1642C69.4115 29.3995 65.522 29.8757 62.4614 31.3017C58.4303 33.1792 57.5983 35.3724 55.344 36.801Z" fill="#F7A907"/>
<path fill-rule="evenodd" clip-rule="evenodd" d="M48.1916 117.826C46.2335 119.69 47.1463 119.661 44.0929 120.798C41.8445 121.634 40.7388 121.734 37.6899 121.698L40.5133 148.752C42.8884 172.115 22.4606 173.609 20.2648 175.438L23.4501 183.124C54.5154 178.802 49.78 154.7 52.7451 149.017L53.4922 135.488C54.1919 135.977 67.7482 162.65 68.4245 165.041C73.373 172.921 75.229 171.667 77.1468 166.709C77.1799 160.842 65.5134 126.882 63.6261 119.8C61.0821 120.507 59.3358 121.679 56.0173 121.371C54.5504 119.32 55.078 119.744 54.2263 117.108L48.1916 117.826Z" fill="#3C3B4B"/>
<path fill-rule="evenodd" clip-rule="evenodd" d="M222.741 174.308C222.769 170.829 223.672 171.659 227.338 171.332L246.135 169.382C243.641 174.002 245.119 172.404 241.326 173.02L229.22 174.383C227.23 174.627 224.512 175.399 222.741 174.308ZM235.844 164.134C220.398 166.604 253.454 161.316 235.844 164.134V164.134ZM245.071 152.828L241.308 153.145C239.121 153.977 236.878 153.634 234.792 154.181C229.26 153.607 222.728 153.469 217.676 156.055L213.478 156.165C212.008 156.149 211.571 156.241 210.185 156.349C209.34 156.416 208.605 156.447 207.722 156.546C205.851 156.758 204.129 157.142 202.199 157.804C201.221 156.39 201.698 153.722 201.74 151.782C200.568 153.577 201.188 156.388 200.808 158.677C200.037 163.335 201.238 160.868 201.591 164.489L206.056 164.026L207.9 165.89C205.879 167.251 206.497 167.068 204.924 167.208C203.643 167.322 202.797 167.229 201.551 167.093C199.954 170.947 198.478 170.475 202.176 174.122L222.882 171.969C217.767 176.941 220.423 175.082 216.199 175.6C212.224 176.087 205.883 177.566 202.178 176.695C201.27 177.943 200.047 179.009 200.687 181.279C201.166 182.977 203.283 183.538 204.486 184.474C204.689 182.657 210.281 182.867 214.31 182.48L243.212 179.494C245.603 179.514 244.594 178.904 245.025 180.343C246.099 179.33 252.385 176.335 246.554 171.544C246.883 169.765 246.504 170.318 247.161 169.052C247.776 167.867 248.219 168.243 248.331 166.571C248.57 162.975 246.128 165.415 246.515 160.562C246.765 157.427 248.661 157.749 247.943 154.924L247.033 150.677C246.994 150.505 248.314 152.078 246.239 148.564L246.431 152.305C245.605 152.941 247.609 153.46 245.071 152.828Z" fill="#AAAAAE"/>
<path fill-rule="evenodd" clip-rule="evenodd" d="M241.178 105.638C240.959 102.164 240.944 95.7238 242.125 93.2526C243.957 89.4209 247.542 88.614 250.042 91.8227C255.651 99.0235 248.311 104.884 241.178 105.638ZM223.891 89.1506C230.689 85.9166 233.287 98.5239 225.992 103.546C222.524 105.933 220.148 101.477 219.723 98.418C219.005 93.2376 220.453 90.7858 223.891 89.1506ZM209.113 106.964C194.317 107.804 192.004 94.8117 195.271 91.4517C202.544 83.9696 208.732 100.981 209.113 106.964ZM214.434 146.194H217.077C217.595 140.427 214.248 117.356 213.325 110.168C216.444 109.864 223.058 108.169 225.01 108.614L237.684 109.802L234.563 146.416L237.52 146.383L240.777 109.652C244.239 107.579 244.141 108.473 247.502 106.874C254.981 103.315 257.503 96.2644 252.137 89.7165C248.622 85.4268 243.21 86.0356 240.109 90.6325C237.218 94.9183 239.673 101.809 237.485 106.19L228.069 106.472L233.376 95.0989C233.392 89.89 230.934 86.1304 225.872 85.964C220.615 85.7912 217.551 89.5131 216.749 93.7261C215.397 100.825 218.598 102.051 219.91 106.197L212.292 107.009L206.922 91.4842C204.028 87.0925 196.913 84.9162 192.85 89.6073C188.972 94.0841 191.87 101.64 194.648 104.87C198.213 109.015 203.549 109.748 209.785 110.111L214.434 146.194Z" fill="#FDECC4"/>
<path fill-rule="evenodd" clip-rule="evenodd" d="M217.082 146.196L234.568 146.418L237.689 109.804L225.015 108.617C223.063 108.171 216.449 109.867 213.33 110.17C214.253 117.359 217.6 140.429 217.082 146.196Z" fill="#F3AD34"/>
<path fill-rule="evenodd" clip-rule="evenodd" d="M56.5464 81.5685C57.0538 88.7212 55.0625 92.6335 55.3224 98.9449C55.4595 102.279 55.8103 105.501 55.6018 108.875C55.4069 112.028 54.5662 114.072 54.2238 117.109C55.0755 119.745 54.548 119.32 56.0149 121.372C59.3334 121.68 61.0797 120.507 63.6238 119.801C67.0487 111.234 63.1703 113.005 62.9143 105.039L63.5432 88.4548C75.3604 83.7338 89.929 96.3436 84.8084 68.4818C84.3588 66.0358 84.5719 64.9191 82.7607 63.7854L78.7549 63.3976C77.0963 64.6696 78.3982 69.0665 78.6282 71.1603C80.0613 84.2093 76.1154 79.2667 56.573 77.6218L56.5464 81.5685Z" fill="#0169A6"/>
<path fill-rule="evenodd" clip-rule="evenodd" d="M50.4797 82.311C51.4723 80.8778 51.9213 81.2248 52.3273 79.179L52.8698 76.4063C51.8543 75.4162 51.6848 76.0834 51.347 74.7191C51.0683 73.5958 51.8446 73.3477 50.8389 71.9808L49.6637 64.7852C51.0228 63.4378 49.3376 64.6916 52.3111 63.4956C54.6148 62.5692 55.0156 62.9915 58.705 63.202C58.9726 65.4095 59.2929 64.3278 58.0988 65.8032C59.0213 69.4725 60.3616 67.2552 60.2427 73.8356L57.1783 74.2747L55.0227 79.1114C56.4682 80.2145 55.0844 78.7677 56.0193 80.2626C56.1993 80.5504 56.387 81.2274 56.5507 81.5691L56.5773 77.6224C76.1196 79.2673 80.0657 84.2099 78.6325 71.1609C78.4026 69.0671 77.1007 64.6702 78.7592 63.3981C78.2298 61.3186 78.6059 62.3041 77.6853 61.5993C74.8366 62.3594 73.955 63.6801 69.6588 63.7366C65.8239 63.7873 63.8561 62.9778 61.4913 61.5083C57.9793 59.3261 52.7171 54.5076 52.9938 49.5793L52.2727 49.5981C52.2188 48.9504 52.0811 47.7661 51.9778 47.3477C51.7238 46.3141 51.831 46.6935 51.5068 46.2069C40.0553 55.2995 39.2919 55.2761 41.6197 62.1098C47.6089 79.6947 51.9758 71.871 50.4797 82.311Z" fill="#ECDCC3"/>
<path fill-rule="evenodd" clip-rule="evenodd" d="M218.534 53.986C218.812 57.5558 216.803 64.0446 215.825 67.5281C214.302 72.9507 212.497 76.8467 213.765 81.0227L229.008 81.1968C230.225 75.461 225.665 59.5691 224.151 53.207C232.367 48.1222 230.236 36.6394 220.355 37.1176C215.324 37.3606 212.72 39.8332 212.366 44.4763C211.914 50.4064 215.172 51.8051 218.534 53.986Z" fill="#3C3B4B"/>
<path fill-rule="evenodd" clip-rule="evenodd" d="M204.486 184.478C206.147 187.534 207.267 188.552 209.446 190.752L210.765 192.305C215.63 194.401 216.941 196.1 223.655 196.19C230.653 196.285 232.414 194.384 237.417 192.364C237.658 191.361 238.7 190.993 239.783 189.89C240.641 189.017 241.136 188.337 242.004 187.152C243.367 185.294 244.539 183.137 245.025 180.347C244.594 178.908 245.603 179.518 243.212 179.497L214.31 182.483C210.281 182.87 204.689 182.66 204.486 184.478Z" fill="#3C3B4B"/>
<path fill-rule="evenodd" clip-rule="evenodd" d="M40.2878 84.7146C46.0905 84.6178 46.4732 84.9621 50.4777 82.3089C51.9739 71.869 47.6069 79.6928 41.6176 62.1079C39.2899 55.2741 40.0533 55.2975 51.5048 46.2049C51.2832 43.846 50.1301 42.6312 48.6294 41.4644L47.2254 40.8401C44.0376 44.2664 32.0625 52.163 32.744 58.7621C33.3163 64.305 39.8226 72.8434 40.2878 84.7146Z" fill="#0169A6"/>
<path fill-rule="evenodd" clip-rule="evenodd" d="M40.5022 88.5815C39.3153 91.6063 40.2989 101.463 39.1139 106.405C38.437 109.228 37.621 111.073 36.8388 113.998C36.5101 115.224 36.03 117.093 35.9683 118.265C35.8357 120.765 35.8091 120.88 37.6905 121.699C40.7393 121.735 41.845 121.635 44.0935 120.799C47.1469 119.662 46.2342 119.691 48.1922 117.827C48.0552 110.593 48.9679 108.258 50.0957 102.031C51.152 96.1954 50.9234 91.3464 51.0507 85.363C47.4679 87.158 43.6692 87.097 40.5022 88.5815Z" fill="#0169A6"/>
<path fill-rule="evenodd" clip-rule="evenodd" d="M202.902 147.406C201.634 149.026 201.865 149.542 201.736 151.782C201.694 153.722 201.216 156.39 202.195 157.804C210.181 156.349 206.771 156.054 213.474 156.165C216.869 155.939 218.28 156.359 220.599 155.458C222.424 154.749 224.826 155.942 224.258 155.01C227.016 155.133 230.09 154.498 233.012 154.392L233.579 154.708L234.787 154.181C236.873 153.634 239.117 153.977 241.303 153.145C245.067 152.828 241.555 153.124 245.067 152.828C247.605 153.46 245.6 152.941 246.426 152.305L246.235 148.564L246.137 147.881C242.863 146.669 238.375 147.091 234.564 146.417L217.077 146.195H214.435C210.938 146.347 205.707 146.024 202.902 147.406Z" fill="#3C3B4B"/>
<path fill-rule="evenodd" clip-rule="evenodd" d="M179.763 46.2482C179.32 51.2993 178.307 53.8947 178.435 59.9027C178.573 66.398 178.274 68.6951 185.161 68.7211C191.698 65.6729 183.341 57.6218 191.657 41.6571C195.102 35.0436 188.823 31.9857 185.32 34.759C183.786 35.9732 180.08 43.4677 179.763 46.2482Z" fill="#FDECC4"/>
<path fill-rule="evenodd" clip-rule="evenodd" d="M66.5953 38.5375C61.617 40.5085 59.5692 44.6911 61.3214 49.4965C62.7396 53.3854 67.2371 56.5323 72.5877 54.634C82.9049 50.9738 77.3478 34.2809 66.5953 38.5375Z" fill="#ECDCC3"/>
<path fill-rule="evenodd" clip-rule="evenodd" d="M51.0517 85.3636C50.9244 91.3469 51.153 96.196 50.0967 102.032C48.9689 108.258 48.0561 110.594 48.1932 117.828L54.2279 117.11C54.5703 114.073 55.411 112.029 55.6059 108.876C55.8144 105.502 55.4636 102.28 55.3265 98.946C55.0666 92.6346 57.0578 88.7223 56.5504 81.5696C56.3867 81.2279 56.199 80.5509 56.019 80.2631C55.0842 78.7683 56.4679 80.2151 55.0225 79.1119L54.3962 79.7012C53.3976 80.9817 53.6341 81.1441 52.8409 82.6883C52.151 84.0298 51.8118 84.2443 51.0517 85.3636Z" fill="#FCFDFB"/>
<path fill-rule="evenodd" clip-rule="evenodd" d="M77.1448 166.707C72.4114 167.733 71.4162 166.583 68.4225 165.039C68.8026 168.6 71.4161 188.622 72.4302 190.513L79.4693 189.532C79.8798 186.765 77.7717 169.561 77.1448 166.707Z" fill="#3C3B4B"/>
<path fill-rule="evenodd" clip-rule="evenodd" d="M209.117 106.963C208.736 100.98 202.548 83.9692 195.275 91.4513C192.009 94.8113 194.321 107.803 209.117 106.963Z" fill="#F3AD34"/>
<path fill-rule="evenodd" clip-rule="evenodd" d="M204.998 20.2097C185.423 27.2461 194.841 35.0653 200.275 33.2099C202.2 32.5525 203.525 31.224 205.173 30.3788C207.238 29.3192 209.337 29.364 210.697 27.7106C213.728 24.0258 210.097 18.3763 204.998 20.2097Z" fill="#FDECC4"/>
<path fill-rule="evenodd" clip-rule="evenodd" d="M52.3277 79.1759C51.9217 81.2216 51.4728 80.8747 50.4801 82.3079C46.4756 84.9611 46.093 84.6167 40.2902 84.7135C28.5853 86.68 35.5796 95.0879 19.8975 98.114C14.2559 99.2029 16.2023 97.8379 12.6031 102.115C15.9638 104.066 25.8029 100.314 28.9544 98.4122C33.7157 95.5381 34.4927 89.128 40.504 88.5784C43.6711 87.0939 47.4696 87.155 51.0524 85.36C51.8125 84.2406 52.1516 84.0262 52.8416 82.6847C53.6348 81.1405 53.3983 80.978 54.3968 79.6976C54.7749 78.4931 54.9971 78.6126 54.2552 77.3666L52.3277 79.1759Z" fill="#F7A907"/>
<path fill-rule="evenodd" clip-rule="evenodd" d="M142.609 42.3062L143.605 45.446L143.979 42.6187C145.782 35.1262 147.819 36.6035 152.389 32.6919L143.911 21.855C143.818 21.9687 143.704 22.0142 143.671 22.224L143.073 23.3804C140.523 29.9581 143.946 27.2601 134.894 32.7848C137.427 35.3887 141.043 35.006 142.609 42.3062Z" fill="#FCFDFB"/>
<path fill-rule="evenodd" clip-rule="evenodd" d="M223.891 89.1533C220.453 90.7885 219.005 93.2403 219.723 98.4206C220.148 101.48 222.525 105.936 225.992 103.549C233.288 98.5265 230.69 85.9193 223.891 89.1533Z" fill="#F3AD34"/>
<path fill-rule="evenodd" clip-rule="evenodd" d="M241.178 105.638C248.311 104.884 255.651 99.0234 250.042 91.8226C247.542 88.6139 243.957 89.4208 242.125 93.2525C240.944 95.7238 240.959 102.164 241.178 105.638Z" fill="#F3AD34"/>
<path fill-rule="evenodd" clip-rule="evenodd" d="M17.1373 193.652C19.4001 194.964 20.5155 195.484 20.5408 192.148C17.9702 185.938 20.8533 185.178 20.6571 183.091L18.0559 177.916L12.6794 179.949C12.9477 184.058 17.0451 189.684 17.1373 193.652Z" fill="#1D2038"/>
<path fill-rule="evenodd" clip-rule="evenodd" d="M109.932 71.5361C114.447 74.5239 111.79 70.242 116.408 79.0806C119.166 74.6168 115.1 76.9244 122.953 71.5212L117.34 65.0656C114.465 66.5039 116.046 66.5591 114.037 69.1083C112.623 70.9033 111.564 70.7409 109.932 71.5361Z" fill="#FCFDFB"/>
<path fill-rule="evenodd" clip-rule="evenodd" d="M222.741 174.308C224.512 175.399 227.23 174.627 229.22 174.383L241.326 173.02C245.119 172.404 243.642 174.002 246.136 169.382L227.338 171.332C223.672 171.659 222.769 170.829 222.741 174.308Z" fill="#5A5965"/>
<path fill-rule="evenodd" clip-rule="evenodd" d="M73.0306 192.189L73.7167 198.261C76.4472 198.749 79.9774 198.042 82.8359 197.79L89.2571 194.258C87.3608 193.886 86.3596 194.065 84.4756 194.015C81.6152 193.938 81.3216 193.562 80.5004 192.85C77.4951 191.757 82.2382 191.018 77.1904 191.563C75.6747 191.727 74.15 192.122 73.0306 192.189Z" fill="#1D2038"/>
<path fill-rule="evenodd" clip-rule="evenodd" d="M216.862 162.867L214.43 162.866L209.366 162.923C210.289 165.457 209.749 163.809 213.332 166.299C214.617 167.192 217.967 165.392 221.696 165.084C223.756 164.914 224.196 165.131 225.89 165.228C228.063 165.352 227.361 165.872 229.712 163.31C229.635 163.251 229.59 162.996 229.559 163.063C229.097 164.037 229.214 162.625 229.082 162.524C228.155 161.814 228.821 161.869 226.968 161.282H226.665C226.033 162.346 227.7 161.973 224.796 162.068C223.762 162.102 223.665 161.801 222.016 161.845C220.514 161.885 217.728 162.563 216.862 162.867Z" fill="#76747B"/>
<path fill-rule="evenodd" clip-rule="evenodd" d="M50.8372 71.9762C51.8429 73.3431 51.0666 73.5912 51.3453 74.7145C51.6831 76.0788 51.8526 75.4116 52.868 76.4017L52.3255 79.1744L54.2531 77.3651C54.995 78.6111 54.7728 78.4916 54.3947 79.6961L55.021 79.1068L57.1766 74.2701L60.241 73.831C60.3599 67.2506 59.0196 69.4679 58.0971 65.7986C57.1999 66.3527 57.6872 66.1877 57.1636 66.7198C54.6026 69.3223 55.466 69.1937 54.7787 69.9337L52.7452 72.238C52.7102 72.1496 52.6796 72.5492 52.603 72.6863L50.8372 71.9762Z" fill="#EBB0A8"/>
<path fill-rule="evenodd" clip-rule="evenodd" d="M202.176 174.121L202.177 176.694C205.882 177.565 212.224 176.086 216.199 175.599C220.422 175.08 217.766 176.94 222.882 171.968L202.176 174.121Z" fill="#5A5965"/>
<path fill-rule="evenodd" clip-rule="evenodd" d="M50.8372 71.976L52.6029 72.6861C52.6796 72.549 52.7101 72.1495 52.7452 72.2378L54.7786 69.9335C55.466 69.1935 54.6026 69.3222 57.1635 66.7197C57.6871 66.1876 57.1999 66.3526 58.0971 65.7985C59.2912 64.3231 58.9709 65.4048 58.7032 63.1972C55.0138 62.9867 54.613 62.5645 52.3093 63.4909C49.3358 64.6869 51.021 63.433 49.6619 64.7804L50.8372 71.976Z" fill="#1D2038"/>
<path fill-rule="evenodd" clip-rule="evenodd" d="M48.6316 41.4642C50.1323 42.631 51.2855 43.8458 51.507 46.2047C51.8312 46.6913 51.724 46.3119 51.978 47.3455C52.0813 47.7639 52.219 48.9482 52.2729 49.5959L52.994 49.5771L52.8602 43.6359L57.4929 40.6482C56.5977 37.9443 55.7499 40.4689 55.3445 36.8009C53.0694 39.2079 54.3382 37.752 52.13 39.1104C51.2075 39.6776 51.6525 39.575 50.6832 40.3461C49.5996 41.2076 50.2609 41.0562 48.6316 41.4642Z" fill="#E6B092"/>
<path fill-rule="evenodd" clip-rule="evenodd" d="M231.102 160.838C231.547 163.887 232.268 164.706 235.84 164.135C237.459 163.876 237.783 164.321 238.666 164.326C238.683 164.326 240.296 163.781 241.815 163.355L241.268 160.124L231.102 160.838Z" fill="#3C3B4B"/>
<path fill-rule="evenodd" clip-rule="evenodd" d="M224.798 162.07C209.976 162.554 226.419 162.017 224.798 162.07V162.07Z" fill="#AAAAAE"/>
<path fill-rule="evenodd" clip-rule="evenodd" d="M77.6838 61.5972C78.6043 62.3021 78.2282 61.3166 78.7577 63.3961L82.7635 63.784C82.425 61.6303 82.4938 60.1264 82.1683 57.874C80.6462 57.6323 79.4359 56.1407 78.1067 56.8235C76.3494 57.7259 77.7773 59.3702 77.6838 61.5972Z" fill="#EBB0A8"/>
<path fill-rule="evenodd" clip-rule="evenodd" d="M132.587 64.3907C134.801 62.9738 134.01 62.853 134.034 58.2502L134.244 50.8447C135.014 50.4328 132.912 50.1106 137.434 50.412C138.6 62.5015 135.038 57.3374 142.175 64.3004C143.347 61.2398 142.681 54.1437 143.025 50.3133C142.057 51.4885 142.42 48.5891 142.101 52.1992L141.818 64.0555L138.936 63.7891L137.929 49.9371L133.556 50.1002L132.587 64.3907Z" fill="#EAB956"/>
<path fill-rule="evenodd" clip-rule="evenodd" d="M201.549 167.092C202.794 167.227 203.641 167.32 204.922 167.206C206.494 167.066 205.876 167.249 207.897 165.888L206.054 164.024L201.589 164.487L201.549 167.092Z" fill="#3C3B4B"/>
<path fill-rule="evenodd" clip-rule="evenodd" d="M284.3 75.9254L284.173 69.2501C282.185 69.5321 282.479 69.0793 282.415 71.9605C282.376 73.7308 282.36 74.4084 283.102 76.1885L284.3 75.9254Z" fill="#E7A947"/>
</svg>
