<svg width="250" height="202" viewBox="0 0 250 202" fill="none" xmlns="http://www.w3.org/2000/svg">
<path fill-rule="evenodd" clip-rule="evenodd" d="M186.056 71.1085C187.831 69.5546 188.834 70.5085 190.514 67.8168C191.594 66.0863 191.538 63.935 192.459 62.172C196.197 72.7438 194.733 67.7365 199.172 71.1085L194.424 74.3075C192.993 75.692 193.167 78.531 192.1 79.8541L190.149 74.4504C188.859 72.3893 186.954 72.4684 186.056 71.1085ZM195.416 18.8492C196.84 17.88 197.52 17.3389 200.131 18.0002C201.513 18.3505 210.813 21.8624 208.56 25.9159C206.614 29.4174 203.079 25.2939 200.959 24.4694C196.892 22.8886 194.716 23.4781 195.416 18.8492ZM180.325 14.6736C183.19 14.6717 184.77 14.9306 187.314 15.3538C189.292 15.6833 191.683 16.6059 190.355 19.5963C189.517 21.4832 186.748 21.0097 184.658 20.5705C182.375 20.0901 179.552 20.3055 177.118 20.3748C161.462 20.8208 150.424 29.9516 148.572 30.0878C145.965 30.2786 144.733 27.8813 145.784 25.9766C146.411 24.8393 153.454 20.8772 155.276 20.1398C162.962 17.0322 170.388 14.6822 180.325 14.6736ZM85.0345 80.4443L87.4857 80.2051C88.5292 81.8773 89.6217 83.187 90.6836 85.0739C91.6798 86.8448 92.3632 88.3747 93.3606 89.9942C93.8618 88.9066 93.6495 89.4452 95.3364 88.3931C96.1069 87.9116 96.5265 87.4785 97.4411 86.9933C101.12 85.0407 104.587 82.2674 105.589 81.7049L109.835 79.1801C111.214 78.1832 112.795 77.4416 114.14 76.4245C115.996 75.0222 115.548 74.4413 118.022 73.5279C120.933 72.4526 118.182 72.739 122.022 70.8012C123.346 70.1338 122.761 70.1191 123.876 69.137C124.643 68.461 124.92 68.4702 125.416 67.5819C124.243 64.4357 123.074 61.5998 122.454 58.1584C121.743 54.2037 122.613 50.6077 124.201 47.997C125.278 46.2254 125.183 45.7328 126.702 44.444C133.888 38.3495 141.083 37.6607 144.615 48.146C146.674 54.2552 137.205 63.0787 133.225 66.2931C132.095 67.2053 130.625 67.8531 130.481 69.6885C130.961 72.4244 133.913 75.1179 135.435 76.2252C139.763 69.4308 136.014 74.9057 138.47 70.6755C139.891 69.9547 140.82 68.3524 143.365 67.4611C147.583 65.984 151.701 64.9485 155.762 68.0979C156.859 68.9493 158.736 71.0098 159.233 72.5894C160.868 77.7888 157.709 80.0432 156.209 81.6289C150.572 87.5841 145.066 85.0383 141.036 85.0076L139.721 84.9604L140.233 86.8461L146.456 87.0602L147.281 90.1488L146.977 91.2787L146.016 91.3137L145.696 90.4254C145.506 89.2415 146.289 88.6355 145.532 88.2662C145.31 88.1576 144.435 87.9116 144.354 89.1103C144.273 90.3071 144.91 90.196 144.413 91.1505L142.867 91.2278L143.05 88.4631C142.328 87.7392 141.893 88.3196 141.845 89.09L143.449 92.9141L144.701 93.0577C146.5 93.1239 149.363 91.3867 151.121 90.6414C154.913 89.033 161.641 87.2963 165.231 90.3874C165.234 90.3911 165.859 91.0205 165.869 91.0309C170.719 96.0524 167.646 103.319 162.409 105.429C156.716 107.724 151.789 107.107 147.122 103.349C144.665 101.371 144.042 100.266 142.168 98.3503C135.994 100.6 128.698 103.022 122.969 105.736L115.328 108.487C113.431 109.037 105.827 112.96 103.75 113.105C104.469 115.607 106.122 117.873 106.194 120.651L113.666 121.691C114.652 121.555 115.55 121.346 116.562 121.479C118.045 121.672 117.576 122.07 118.761 122.119C119.07 120.577 119.662 119.821 120.767 118.583C121.454 117.813 123.793 117.74 125.174 117.748L127.569 119.974C128.514 120.345 130.231 119.972 131.574 119.955C138.041 119.877 152.476 119.208 157.798 118.369C160.888 117.882 174.204 115.275 176.561 114.158C178.386 113.294 187.203 110.113 189.337 108.666C189.39 108.63 189.463 108.571 189.516 108.533C189.57 108.495 189.643 108.435 189.699 108.396L194.314 105.304C194.413 105.235 194.727 104.997 194.881 104.891C195.969 104.152 196.615 103.888 197.579 103.117C199.259 101.775 203.6 98.0528 204.84 96.5855C206.285 94.8747 209.673 91.7217 210.534 90.4555C210.571 90.4009 210.62 90.3212 210.655 90.2641C212.583 87.1694 212.03 87.9466 214.458 84.6979C218.127 79.7917 216.385 81.6951 218.135 79.0801C219.219 77.4613 220.893 75.5639 221.281 73.2549L222.11 73.7843L223.965 69.1885L226.217 65.4067C226.686 64.3811 226.392 64.2032 227.051 62.945L230.219 56.8899C230.878 55.5299 231.366 53.6485 232.091 52.3112C233.082 50.485 237.055 41.2069 237.197 39.012C236.165 35.4486 230.666 27.0232 227.743 23.3585C222.045 16.2158 212.483 8.58284 204.038 5.11082C196.649 2.0725 185.638 -0.995874 175.552 0.308281C172.997 0.63892 170.33 0.783689 167.833 1.05605C166.591 1.19224 165.65 1.66519 164.556 1.85719C152.13 4.03671 138.222 12.2892 128.64 20.3938C126.04 22.593 118.777 30.1639 116.547 33.2783L112.983 38.425C111.305 40.7388 111.717 39.7874 109.481 43.23L103.222 53.654C102.593 54.7146 102.146 55.3538 101.68 56.2979C100.041 59.6172 96.4664 65.6373 94.2899 69.7301C92.1374 73.7782 90.3781 76.2938 87.7783 80.1885L85.0345 80.4443Z" fill="#F5AC00"/>
<path fill-rule="evenodd" clip-rule="evenodd" d="M192.444 121.45L196.783 120.077C196.961 121.839 197.27 122.692 195.404 122.795C192.883 122.935 192.446 121.452 192.444 121.45ZM113.663 121.691L119.137 122.734L119.177 123.677C119.912 121.923 120.097 119.602 121.86 118.754C123.384 118.021 127.989 118.619 126.393 120.96C128.186 121.004 127.825 121.517 128.91 125.063C130.376 125.3 131.946 125.314 132.922 126.189C133.944 126.059 146.594 128.145 150.191 128.351C158.838 128.845 162.523 128.077 169.572 127.952C170.112 127.767 176.254 126.862 177.083 126.915C179.266 127.053 180.586 128.464 183.898 126.284L189.39 123.175C190.731 122.896 192.065 124.141 196.972 124.059C197.698 123.305 198.603 122.499 199.837 122.41C199.698 121.181 200.125 121.938 199.561 121.422C198.195 121.818 198.806 122.091 196.729 122.373C196.653 120.205 196.91 119.909 197.733 118.373C196.007 118.301 196.103 118.146 194.827 117.515L194.341 113.721C197.863 111.782 196.582 111.025 200.379 111.67L199.666 114.66C199.704 113.371 199.688 113.917 200.025 113.362C200.945 113.971 201.21 114.385 202.119 115.358L202.04 116.441L201.93 116.941C203.63 117.791 204.474 116.659 206.091 115.795C207.716 114.926 213.124 111.367 214.626 110.222C215.783 109.34 215.049 109.609 216.452 109.114C215.6 112.126 216.063 110.295 215.392 111.702C215.758 110.832 216.256 110.144 216.682 109.093C217.264 107.657 217.302 106.946 218.795 106.757C221.732 104.595 221.168 105.088 223.922 102.195C225.5 101.444 232.2 92.3811 233.648 90.1071C241.991 77.0166 245.32 62.2163 240.276 46.7468C239.532 44.4643 238.424 40.9144 237.195 39.0121C237.052 41.2069 233.079 50.4851 232.089 52.3112C231.363 53.6485 230.876 55.5299 230.216 56.8899L227.049 62.9451C226.39 64.2032 226.684 64.3811 226.215 65.4067L223.963 69.1886L222.108 73.7844L221.279 73.255C220.89 75.5639 219.217 77.4613 218.133 79.0801C216.383 81.6952 218.125 79.7917 214.456 84.6979C212.028 87.9466 212.58 87.1694 210.653 90.2642C210.618 90.3212 210.569 90.401 210.532 90.4556C209.671 91.7217 206.282 94.8747 204.838 96.5856C203.598 98.0529 199.257 101.775 197.577 103.117C196.613 103.888 195.967 104.152 194.879 104.891C194.725 104.997 194.411 105.236 194.312 105.304L189.696 108.397C189.641 108.435 189.567 108.495 189.513 108.533C189.461 108.571 189.388 108.63 189.334 108.666C187.2 110.114 178.384 113.294 176.559 114.158C174.202 115.275 160.885 117.882 157.795 118.369C152.473 119.208 138.039 119.877 131.572 119.955C130.229 119.972 128.512 120.345 127.566 119.974L125.172 117.748C123.791 117.74 121.452 117.813 120.764 118.583C119.66 119.821 119.068 120.577 118.759 122.119C117.574 122.071 118.043 121.672 116.559 121.479C115.547 121.346 114.649 121.555 113.663 121.691Z" fill="#F19406"/>
<path fill-rule="evenodd" clip-rule="evenodd" d="M146.066 96.4394C147.737 95.5861 155.174 93.0318 157.162 92.5239C165.415 90.4149 168.031 99.2697 160.493 102.537C152.8 105.872 145.941 98.5711 146.066 96.4394ZM155.314 77.2501C155.216 79.9252 146.626 84.0223 142.022 81.5803C139.513 80.2491 143.327 81.5459 138.246 79.2229C140.034 75.1828 140.892 71.2875 144.968 70.4306C145.892 69.8202 147.501 69.4755 149.232 69.4896C151.427 69.508 151.525 69.9031 153.168 70.4889C155.586 71.5814 156.711 74.5915 155.753 76.6373C155.535 77.1016 155.478 77.0587 155.314 77.2501ZM128.421 65.2968C124.79 58.1159 124.309 50.4168 131.217 45.3897C138.78 39.8873 141.737 48.1551 141.433 50.5205C140.899 54.6716 130.537 65.0459 128.421 65.2968ZM93.3612 89.9941C93.6943 91.1314 94.1899 91.9755 94.785 92.5871C98.4281 90.9707 102.762 87.5944 105.021 86.5779C106.244 86.0276 106.771 85.3535 108.277 84.3597C109.399 83.6193 110.563 83.0083 111.615 82.2385C114.016 80.4804 115.731 78.9542 117.996 77.7034C119.832 76.6906 122.851 73.7492 124.293 73.3658C126.016 72.9082 128.078 72.9935 129.02 74.0106C129.926 74.9896 130.51 76.1257 131.119 77.3292C132.634 80.3246 134.283 78.5634 135.18 83.823C136.247 90.0842 139.629 93.2913 139.805 95.1567C134.372 97.3019 126.365 100.268 121.274 102.501C119.207 103.407 104.024 109.51 102.789 109.656L102.698 110.553L103.75 113.105C105.828 112.96 113.431 109.037 115.328 108.487L122.97 105.736C128.698 103.022 135.995 100.6 142.169 98.3502C144.043 100.266 144.666 101.371 147.123 103.349C151.79 107.107 156.716 107.723 162.409 105.429C167.646 103.318 170.72 96.0523 165.87 91.0308C165.86 91.0204 165.235 90.391 165.231 90.3873C161.641 87.2962 154.913 89.0329 151.121 90.6413C149.364 91.3866 146.5 93.1238 144.702 93.0576C143.882 94.1164 143.258 94.2053 142.405 92.7214C141.281 90.7652 139 86.3491 138.78 84.0426C141.594 84.5095 140.586 84.4512 141.036 85.0076C145.067 85.0382 150.572 87.584 156.21 81.6288C157.71 80.0431 160.869 77.7887 159.234 72.5893C158.737 71.0097 156.859 68.9492 155.762 68.0978C151.702 64.9484 147.584 65.9839 143.365 67.461C140.821 68.3524 139.892 69.9546 138.47 70.6754C137.759 72.0194 137.353 71.947 136.763 73.3635C136.394 74.2499 136.104 75.4589 135.435 76.2251C132.678 73.9137 134.526 75.2994 132.66 73.2395C131.767 72.2538 130.767 71.068 130.482 69.6884C130.626 67.853 132.096 67.2052 133.226 66.2931C137.205 63.0787 146.674 54.2551 144.616 48.146C141.083 37.6606 133.889 38.3495 126.702 44.4439C125.183 45.7327 125.279 46.2253 124.202 47.9969C122.614 50.6077 121.743 54.2036 122.455 58.1584C123.074 61.5997 124.244 64.4356 125.417 67.5819C124.921 68.4701 124.644 68.4609 123.876 69.1369C122.762 70.119 123.347 70.1337 122.023 70.8012C118.182 72.739 120.934 72.4525 118.023 73.5279C115.549 74.4413 115.997 75.0222 114.14 76.4245C112.795 77.4415 111.214 78.1832 109.836 79.18L105.59 81.7049C104.588 82.2674 101.12 85.0407 97.4417 86.9932C96.5271 87.4785 96.1075 87.9115 95.337 88.3931C93.6501 89.4451 93.8624 88.9065 93.3612 89.9941Z" fill="#EADAC2"/>
<path fill-rule="evenodd" clip-rule="evenodd" d="M94.785 92.5874C95.1997 94.4338 98.019 99.7258 98.8797 101.573C100.229 104.47 101.409 107.46 102.698 110.554L102.789 109.656C104.024 109.51 119.207 103.407 121.273 102.501C126.365 100.268 134.372 97.3022 139.805 95.157C139.629 93.2916 136.247 90.0845 135.18 83.8233C134.283 78.5637 132.634 80.3249 131.119 77.3295C130.511 76.126 129.927 74.9899 129.02 74.0109C128.078 72.9938 126.016 72.9085 124.293 73.3661C122.851 73.7495 119.832 76.6909 117.997 77.7037C115.731 78.9545 114.016 80.4807 111.615 82.2388C110.563 83.0086 109.399 83.6196 108.277 84.36C106.771 85.3538 106.244 86.0279 105.021 86.5782C102.762 87.5947 98.4282 90.971 94.785 92.5874Z" fill="#F5AC00"/>
<path fill-rule="evenodd" clip-rule="evenodd" d="M52.0839 194.098C52.8586 195.042 51.2238 194.595 52.8347 194.877L52.2765 197.827L25.1341 198.075L2.6923 198.859C-0.581576 198.945 0.303644 199.069 0 199.71C42.2942 201.226 83.0834 201.277 125.496 201.277C139.911 201.277 236.771 201.014 250 199.096C248.738 198.392 248.647 198.494 247.035 198.431C242.569 198.257 226.853 197.52 224.78 198.131C226.299 195.196 225.206 195.809 224.818 195.52L225.053 197.237C218.331 198.816 214.16 200.956 214.514 196.815C214.607 195.728 214.626 196.007 215.196 195.385L214.078 195.247C214.106 196.701 214.288 196.715 213.673 197.733C194.467 197.577 173.871 197.209 154.661 197.395C151.327 197.427 152.128 197.915 151.92 197.017C149.751 197.956 150.348 198.172 147.5 198.499C144.018 198.899 143.793 199.947 142.546 199.411C141.705 199.049 140.743 195.647 143.641 196.19C145.363 196.513 146.534 197.156 147.857 195.52C146.582 195.627 146.308 196.02 145.108 195.964C144.124 195.919 143.432 195.564 142.154 195.52C141.192 196.063 141.3 195.158 141.208 197.34C136.162 197.483 105.07 197.87 102.888 197.048L102.924 198.902C99.5319 197.577 101.675 198.261 99.7748 196.615L99.6233 197.432L71.949 197.524C68.8635 197.521 65.1779 198.005 63.3898 196.891C63.5732 199.305 61.5281 198.717 59.1013 198.954C57.5874 199.102 54.692 199.578 53.2566 199.148L52.8738 195.852L56.5581 195.033L57.0243 195.424C57.0777 195.468 57.4396 195.717 57.5187 195.789C57.3107 193.463 57.4359 195.596 56.8893 193.731C54.835 194.036 54.3511 194.329 52.0839 194.098Z" fill="#D3C2B0"/>
<path fill-rule="evenodd" clip-rule="evenodd" d="M113.554 176.467C116.868 176.57 117.276 176.661 119.78 177.747C122.026 177.958 124.592 178.66 127.056 178.221C128.168 178.024 128.987 177.416 129.825 177.123C130.801 176.781 132.114 176.575 133.15 176.399C134.126 176.28 135.194 176.244 136.211 176.101C137.852 175.872 137.965 175.57 139.549 175.323L140.939 174.42C138.811 166.534 138.051 162.636 135.058 155.138C134.325 153.304 133.231 151.121 132.724 149.105L131.548 149.113L129.766 149.026C129.306 149.411 129.54 149.389 128.388 149.584C125.754 150.029 119.924 149.105 119.081 149.12L115.353 163.296C113.302 171.646 110.523 172.745 109.508 175.318L113.554 176.467Z" fill="#03649C"/>
<path fill-rule="evenodd" clip-rule="evenodd" d="M192.989 148.322C192.084 149.224 191.258 150.065 189.908 150.333C188.357 150.642 187.108 150.268 186.16 151.204C185.794 152.165 185.426 153.523 185.502 154.702L185.636 155.768C183.596 165.11 185.636 155.768 183.693 164.846C183.031 166.493 183.041 169.503 182.109 171.008C180.46 173.673 167.014 175.073 163.904 175.871L163.789 181.244L177.952 179.417C189.227 179.032 191.315 167.318 193.265 162.722C193.743 158.923 193.57 159.426 195.618 158.934C196.511 159.44 201.295 164.595 202.024 165.481C207.877 172.606 208.212 174.29 210.356 183.473C211.051 186.449 211.933 191.633 212.85 194.036L218.572 192.441C214.548 174.498 212.738 168.242 210.07 164.094C209.33 163.38 211.054 165.674 203.658 153.506L202.269 150.573C201.793 150.287 199.676 150.871 198.417 150.484C196.655 149.942 197.25 149.142 196.95 147.967L192.989 148.322Z" fill="#3C3A4A"/>
<path fill-rule="evenodd" clip-rule="evenodd" d="M44.8337 123.81C45.0852 124.386 45.4146 124.264 46.2918 124.573C49.8878 125.838 47.5297 127.431 50.2613 128.428C53.377 129.564 57.3226 126.831 59.4941 128.484L62.3257 126.663C63.5918 129.117 61.6061 126.947 65.8001 131.005C63.5912 131.475 62.5471 131.363 60.3419 130.993L59.8787 132.448C58.3354 132.677 56.2798 132.595 55.0879 133.22C57.6109 134.624 59.4487 135.43 62.6667 136.129C66.6877 137.003 68.9556 136.225 72.5326 136.04L73.2061 135.237C71.7547 132.449 69.4267 129.254 67.646 126.367C65.4014 122.728 61.5657 115.969 59.3788 112.872C58.4059 111.493 57.3446 109.753 56.5361 108.319L52.3488 101.595C51.6164 100.434 51.7005 99.7423 50.4951 99.965C47.8978 101.091 43.6191 111.573 45.1459 118.1L47.096 124.625L44.8337 123.81Z" fill="#3C3A4A"/>
<path fill-rule="evenodd" clip-rule="evenodd" d="M36.0047 124.533C34.1473 124.828 34.7356 125.628 32.8186 125.919C31.701 126.089 29.9545 126.028 28.8166 125.994C27.756 135.635 29.992 135.579 29.949 140.356C29.8496 151.454 26.2095 152.673 30.6722 152.974C32.4929 152.785 35.2748 152.459 36.885 150.135C36.8746 149.979 36.6108 149.3 36.7292 147.028C36.6317 143.959 36.536 142.337 36.7071 139.097C36.8697 136.027 36.3593 133.889 36.3863 131.083L39.5939 131.892L40.1779 135.883C41.0312 140.809 41.3968 141.483 41.6502 147.406C42.1618 148.053 42.2648 148.416 42.7157 149.011L45.7932 148.275C46.3337 145.905 46.3324 147.258 45.8932 144.835C45.6018 143.015 44.9719 142.491 44.7823 139.73L44.5425 133.467C46.6122 133.481 46.7061 134.287 49.4739 133.953C51.3454 133.728 53.1281 133.207 55.088 133.22C56.2798 132.595 58.3354 132.677 59.8788 132.448L60.342 130.993L59.4942 128.484C57.3227 126.831 53.377 129.564 50.2614 128.427C47.5298 127.431 49.8879 125.837 46.2919 124.573C45.4147 124.263 45.0854 124.386 44.8339 123.809L38.6057 121.546L39.4865 126.171C37.9953 125.923 37.2187 125.426 36.0047 124.533Z" fill="#03649C"/>
<path fill-rule="evenodd" clip-rule="evenodd" d="M78.202 83.1771C78.1953 83.9978 78.2058 84.0488 78.6941 84.9192L87.2422 98.4668C87.8305 99.3673 88.1654 100.187 88.7819 101.097C92.6784 106.849 97.1939 114.829 100.995 120.958C102.311 123.079 101.979 122.709 102.917 123.038C104.458 122.812 105.717 121.786 106.192 120.651C106.12 117.873 104.467 115.607 103.748 113.105L102.696 110.553C101.407 107.46 100.226 104.47 98.8772 101.573C98.0165 99.7255 95.1972 94.4334 94.7825 92.587C94.1875 91.9754 93.6918 91.1314 93.3587 89.9941C92.3613 88.3746 91.6779 86.8447 90.6817 85.0738C89.6199 83.1868 88.5273 81.8772 87.4839 80.205L85.0326 80.4442C82.9831 80.9987 79.2522 82.4379 78.202 83.1771Z" fill="#3C3A4A"/>
<path fill-rule="evenodd" clip-rule="evenodd" d="M70.0535 87.4601L71.5055 86.9467C71.8318 88.2612 75.002 92.7798 75.8166 94.1735C78.4145 98.6203 80.9094 101.986 83.3711 106.492C85.2543 109.937 93.6055 122.772 95.5329 125.727L95.0299 126.682C94.9833 126.758 94.8999 126.879 94.8312 126.975C95.9292 126.891 100.245 129.115 101.873 125.397L102.915 123.038C101.978 122.709 102.309 123.08 100.994 120.958C97.1928 114.83 92.6774 106.849 88.7809 101.097C88.1644 100.187 87.8294 99.3675 87.2412 98.4669L78.693 84.9193C78.2047 84.0489 78.1942 83.998 78.201 83.1772C76.1975 82.9778 75.6571 81.224 72.8819 82.9631C72.0238 83.5005 71.6232 83.8876 71.3165 84.9555C70.6442 87.3013 71.4361 85.5916 70.0535 87.4601Z" fill="#5E5D6D"/>
<path fill-rule="evenodd" clip-rule="evenodd" d="M59.6821 93.0521L60.6114 92.9521C61.4015 94.7795 82.6611 128.4 84.053 130.55L83.6641 131.805C84.653 131.877 89.185 135.146 90.878 129.785C91.3283 128.36 90.5425 129.429 92.1963 128.143C92.6957 127.754 92.3626 128.148 92.8815 127.544L90.837 128.206C90.372 126.918 79.7118 109.523 78.2696 107.423C77.8936 106.875 77.6543 106.704 77.4114 106.375C76.9673 105.773 76.4864 104.519 76.1061 103.817C75.2847 102.3 73.9277 100.402 72.9837 98.941C71.7188 96.9829 67.299 90.975 67.5941 88.6323C65.1085 88.9243 65.0392 86.93 62.2652 88.3869C59.4919 89.8438 60.8009 90.8468 59.6821 93.0521Z" fill="#5E5D6D"/>
<path fill-rule="evenodd" clip-rule="evenodd" d="M50.4947 99.9646C51.7001 99.742 51.6161 100.434 52.3485 101.595L56.5358 108.318C57.3443 109.753 58.4055 111.492 59.3784 112.871C61.5653 115.968 65.4011 122.728 67.6456 126.367C69.4264 129.254 71.7544 132.449 73.2057 135.237L72.5322 136.04L73.6989 136.055C74.7184 137.636 76.0852 138.781 78.626 137.429C81.4882 135.907 79.9013 134.619 81.1208 132.659L80.1357 132.537L77.1581 127.828C76.5857 126.932 76.3753 126.079 75.8441 125.251C75.3816 124.53 74.735 123.869 74.2234 123.054C73.7296 122.265 73.4032 121.387 72.8941 120.521L57.0609 95.0376L58.0767 93.9187C55.2451 94.9591 55.385 91.5932 51.7835 93.5825C50.207 94.4536 48.7421 96.919 50.6634 98.5029L50.4947 99.9646Z" fill="#5E5D6D"/>
<path fill-rule="evenodd" clip-rule="evenodd" d="M39.2403 148.401C39.2403 148.401 40.2015 146.943 35.4425 151.497C34.1335 152.218 32.495 152.785 30.6744 152.974C31.0694 156.714 31.3706 160.39 31.7436 164.059C32.8674 175.114 35.2248 173.318 19.267 184.77L21.084 189.6C27.3348 186.093 31.043 184.565 35.8646 179.309C39.2415 175.628 39.9439 170.643 40.0887 165.053C40.1255 163.607 39.9899 160.57 40.7236 159.808L41.2235 160.652C61.4513 165.585 33.7716 155.722 42.7178 149.011C42.267 148.416 42.1639 148.053 41.6523 147.406C41.1701 147.561 40.0703 148.112 39.2403 148.401Z" fill="#3C3A4A"/>
<path fill-rule="evenodd" clip-rule="evenodd" d="M169.572 127.952C171.461 129.488 174.795 131.344 177.374 132.14L187.998 130.813C188.865 137.059 186.048 143.409 184.022 149.346C186.226 150.738 185.979 149.296 186.159 151.204C187.108 150.268 188.357 150.642 189.908 150.333C191.258 150.065 192.083 149.224 192.989 148.322C192.482 143.626 194.267 140.392 195.428 136.542C196.507 132.962 196.609 128.07 196.972 124.059C192.064 124.141 190.73 122.896 189.39 123.175L183.897 126.283C180.586 128.464 179.266 127.053 177.083 126.915C176.254 126.862 170.112 127.767 169.572 127.952Z" fill="#03649C"/>
<path fill-rule="evenodd" clip-rule="evenodd" d="M122.918 129.291C122.109 129.466 119.449 130.839 119.025 131.256C118.467 133.705 119.43 138.301 121.038 140.375C122.111 141.758 121.896 147.332 122.014 149.335L129.764 149.026L131.546 149.113L132.433 148.064L132.118 145.07L138.587 146.774L138.975 143.55L130.83 140.51C130.798 138.264 131.138 138.968 131.738 137.306C133.278 133.042 128.676 132.862 131.865 129.728L134.216 127.221L132.921 126.189C128.489 126.336 132.443 124.477 127.103 127.214C126.647 127.448 126.934 127.222 126.445 127.541L126.722 130.22C123.75 128.743 124.57 128.816 122.918 129.291Z" fill="#FEFDF4"/>
<path fill-rule="evenodd" clip-rule="evenodd" d="M180.322 14.6735C170.386 14.6821 162.959 17.0322 155.274 20.1398C153.452 20.8772 146.408 24.8393 145.781 25.9766C144.731 27.8813 145.962 30.2786 148.569 30.0878C150.421 29.9516 161.46 20.8207 177.116 20.3748C179.549 20.3055 182.372 20.0902 184.656 20.5705C186.746 21.0097 189.515 21.4832 190.352 19.5963C191.681 16.6059 189.289 15.6833 187.311 15.3539C184.767 14.9306 183.188 14.6717 180.322 14.6735Z" fill="#FEFDF4"/>
<path fill-rule="evenodd" clip-rule="evenodd" d="M215.394 111.702C212.414 117.456 208.391 120.877 201.27 121.26C201.209 124.022 201.39 126.926 200.661 129.335C200.198 130.869 200.146 130.686 199.773 131.084C199.85 132.572 199.296 133.688 199.202 135.237C199.101 136.9 199.189 138.58 199.066 140.274C198.904 142.518 198.51 146.555 196.951 147.968C197.251 149.142 196.657 149.942 198.419 150.484C199.678 150.872 201.795 150.287 202.27 150.573C202.803 148.317 203.474 147.26 203.654 144.535C204.215 136.009 201.912 131.721 208.451 126.175C217.904 118.159 215.642 120.257 221.533 108.131C220.473 107.509 220.11 107.174 218.797 106.757C217.304 106.946 217.266 107.657 216.684 109.093C216.258 110.144 215.76 110.832 215.394 111.702Z" fill="#03649C"/>
<path fill-rule="evenodd" clip-rule="evenodd" d="M67.597 88.6324C67.3019 90.9751 71.7216 96.983 72.9865 98.9411C73.9306 100.402 75.2875 102.3 76.1089 103.817C76.4892 104.519 76.9701 105.773 77.4142 106.375C77.6572 106.704 77.8964 106.875 78.2725 107.423C79.7146 109.523 90.3748 126.918 90.8398 128.206L92.8844 127.544C93.6745 127.733 94.5473 127.174 94.8344 126.975C94.9031 126.879 94.9865 126.758 95.0332 126.682L95.5362 125.727C93.6088 122.772 85.2575 109.937 83.3743 106.492C80.9126 101.986 78.4178 98.6203 75.8199 94.1735C75.0053 92.7798 71.8351 88.2612 71.5088 86.9467L70.0568 87.4601C69.1826 87.4429 68.1288 88.1601 67.597 88.6324Z" fill="#3C3A4A"/>
<path fill-rule="evenodd" clip-rule="evenodd" d="M128.418 65.2969C130.534 65.0461 140.896 54.6717 141.43 50.5207C141.735 48.1553 138.777 39.8874 131.214 45.3899C124.306 50.417 124.787 58.1161 128.418 65.2969Z" fill="#F5AC00"/>
<path fill-rule="evenodd" clip-rule="evenodd" d="M58.0772 93.9189L57.0614 95.0378L72.8946 120.521C73.4037 121.387 73.7301 122.266 74.2239 123.054C74.7355 123.87 75.382 124.53 75.8446 125.252C76.3758 126.079 76.5862 126.932 77.1585 127.828L80.1361 132.537L81.1213 132.659C81.7028 132.589 83.0064 132.14 83.6646 131.805L84.0535 130.55C82.6616 128.4 61.402 94.7795 60.6119 92.9521L59.6825 93.0521C58.9949 93.1951 59.8568 92.8307 58.8747 93.3362C58.2827 93.641 58.3612 93.603 58.0772 93.9189Z" fill="#3C3A4A"/>
<path fill-rule="evenodd" clip-rule="evenodd" d="M46.371 170.083C48.9008 174.183 48.7836 173.146 48.9008 174.183C49.9093 177.683 50.2774 180.068 50.8797 183.922C51.1221 185.472 52.3348 193.42 52.0808 194.098C54.3481 194.329 54.8315 194.036 56.8858 193.731C57.4778 191.603 55.6798 180.086 55.3013 177.262C54.5677 171.786 47.6605 152.949 46.4085 148.063C46.0803 146.622 48.4315 143.279 46.0085 147.875C45.6999 148.46 42.3217 149.29 42.7162 149.011C44.1602 147.991 38.4406 151.595 37.1647 153.466C38.2701 155.242 45.9687 168.323 46.371 170.083Z" fill="#3C3A4A"/>
<path fill-rule="evenodd" clip-rule="evenodd" d="M146.066 96.4393C145.941 98.5709 152.8 105.872 160.493 102.537C168.031 99.2696 165.415 90.4148 157.162 92.5238C155.174 93.0317 147.737 95.586 146.066 96.4393Z" fill="#F5AC00"/>
<path fill-rule="evenodd" clip-rule="evenodd" d="M199.84 122.41C198.605 122.498 197.701 123.305 196.974 124.059C196.611 128.07 196.509 132.962 195.43 136.542C194.269 140.392 192.485 143.626 192.991 148.322L196.952 147.967C198.51 146.555 198.904 142.518 199.067 140.274C199.189 138.579 199.101 136.9 199.202 135.237C199.297 133.688 199.851 132.572 199.773 131.084C200.396 128.666 201.523 124.376 200.527 121.724C200.672 122.111 201.208 121.179 200.417 122.103C199.976 122.619 200.486 122.1 199.84 122.41Z" fill="#FEFDF4"/>
<path fill-rule="evenodd" clip-rule="evenodd" d="M119.179 123.677C118.607 125.105 117.159 124.561 115.652 125.052L113.785 128.022L110.17 131.335C113.545 132.785 115.603 131.77 119.027 131.257C119.452 130.84 122.111 129.466 122.921 129.291L124.024 127.956C125.218 126.254 124.624 124.183 124.054 122.733C125.539 122.116 125.709 122.33 126.395 120.96C127.991 118.619 123.386 118.021 121.862 118.754C120.098 119.602 119.914 121.923 119.179 123.677Z" fill="#231C37"/>
<path fill-rule="evenodd" clip-rule="evenodd" d="M155.752 76.6375C158.319 71.159 150.156 67.5655 144.967 70.4309C140.891 71.2878 140.033 75.1831 138.244 79.2231C143.326 81.5462 139.511 80.2494 142.021 81.5805C146.517 83.9655 153.783 82.0492 155.752 76.6375Z" fill="#F8C449"/>
<path fill-rule="evenodd" clip-rule="evenodd" d="M98.9814 189.119L101.739 189.133C102.063 192.778 100.218 192.802 102.909 196.344C102.461 191.193 105.181 190.943 108.282 187.919C109.218 187.007 109.618 186.706 110.768 185.92L118.268 179.953C120.18 178.31 119.832 178.633 119.78 177.747C117.276 176.661 116.868 176.57 113.554 176.467C113.098 177.37 112.909 177.425 112.152 178.338C111.562 179.051 111.401 179.297 110.915 179.984C110.021 181.246 109.532 182.201 108.494 183.335L104.186 187.643C103.524 188.118 103.11 188.145 102.407 188.823C100.959 188.621 100.038 188.33 98.9814 189.119Z" fill="#F5B3B5"/>
<path fill-rule="evenodd" clip-rule="evenodd" d="M133.15 176.399L134.679 176.511L138.319 186.209C139.311 188.503 141.66 192.66 142.151 195.52C143.429 195.563 144.121 195.919 145.105 195.964C146.305 196.019 146.579 195.627 147.854 195.52C149.285 195.435 148.56 195.321 148.82 195.04C145.752 195.159 145.231 195.1 144.514 192.259C143.999 190.222 143.256 188.778 142.728 186.682C142.43 185.492 142.355 184.445 142.024 183.405C141.354 181.297 139.495 177.289 139.549 175.323C137.964 175.57 137.852 175.872 136.211 176.101C135.194 176.244 134.126 176.28 133.15 176.399Z" fill="#F5B3B5"/>
<path fill-rule="evenodd" clip-rule="evenodd" d="M201.933 116.941C200.267 117.273 200.409 117.616 200.207 117.922C202.122 118.058 201.889 117.795 202.497 118.323L199.103 118.998C198.031 116.385 198.367 116.574 197.319 116.346L197.736 118.373C196.913 119.909 196.655 120.205 196.732 122.373C198.809 122.091 198.197 121.818 199.564 121.421C200.128 121.938 199.701 121.181 199.84 122.41C200.486 122.1 199.977 122.619 200.418 122.103C201.209 121.179 200.673 122.111 200.527 121.724C201.523 124.376 200.397 128.666 199.774 131.084C200.147 130.686 200.199 130.869 200.662 129.335C201.39 126.926 201.21 124.022 201.271 121.26C208.392 120.877 212.415 117.456 215.395 111.701C216.066 110.294 215.603 112.126 216.454 109.113C215.052 109.608 215.786 109.34 214.629 110.221C213.126 111.367 207.718 114.926 206.094 115.794C204.477 116.659 203.633 117.79 201.933 116.941Z" fill="#EADAC2"/>
<path fill-rule="evenodd" clip-rule="evenodd" d="M195.415 18.8492C194.714 23.4781 196.891 22.8886 200.958 24.4694C203.078 25.2939 206.613 29.4173 208.559 25.9159C210.812 21.8623 201.512 18.3504 200.129 18.0002C197.518 17.3389 196.838 17.88 195.415 18.8492Z" fill="#FEFDF4"/>
<path fill-rule="evenodd" clip-rule="evenodd" d="M186.056 71.1084C186.954 72.4684 188.859 72.3893 190.149 74.4504L192.099 79.8541C193.167 78.5309 192.993 75.692 194.424 74.3075L199.172 71.1084C194.733 67.7364 196.197 72.7438 192.459 62.172C191.538 63.935 191.594 66.0863 190.514 67.8168C188.834 70.5085 187.831 69.5546 186.056 71.1084Z" fill="#FEFDF4"/>
<path fill-rule="evenodd" clip-rule="evenodd" d="M36.7319 147.028L37.6373 148.747L39.2408 148.401C40.0708 148.112 41.1707 147.561 41.6528 147.406C41.3995 141.483 41.0338 140.809 40.1806 135.883L39.5966 131.892L36.3889 131.083C36.362 133.889 36.8724 136.027 36.7098 139.097C36.5387 142.338 36.6343 143.96 36.7319 147.028Z" fill="#FEFDF4"/>
<path fill-rule="evenodd" clip-rule="evenodd" d="M33.8079 123.899C32.6835 124.306 30.9408 124.873 30.277 123.779C28.871 124.24 26.2186 123.542 24.6862 124.175C23.4446 124.688 22.2717 126.189 21.0982 127.001L10.0884 128.575L10.2031 129.958C12.5716 130.554 18.8629 130.405 20.7694 129.538C24.6083 127.793 23.6501 125.595 28.8151 125.995C29.9531 126.028 31.6995 126.089 32.8172 125.919C34.7341 125.628 34.1459 124.828 36.0033 124.533C35.6862 123.302 36.1499 123.134 37.0008 122.766C36.8848 121.769 37.3007 122.51 36.6726 121.957L36.2972 122.297C35.1053 123.446 35.5329 123.332 33.8079 123.899Z" fill="#E9B328"/>
<path fill-rule="evenodd" clip-rule="evenodd" d="M197.736 118.373L197.319 116.346C198.367 116.574 198.031 116.385 199.103 118.998L202.497 118.323C201.889 117.795 202.122 118.059 200.207 117.922C200.409 117.616 200.267 117.273 201.933 116.941L202.043 116.441C200.989 116.569 200 117.474 199.367 117.146C198.266 116.577 198.846 115.226 199.668 114.66L200.381 111.67C196.585 111.025 197.866 111.782 194.343 113.721L194.83 117.515C196.106 118.146 196.01 118.301 197.736 118.373Z" fill="#231C37"/>
<path fill-rule="evenodd" clip-rule="evenodd" d="M122.918 129.291C124.57 128.816 123.75 128.743 126.722 130.22L126.445 127.541C126.934 127.222 126.647 127.448 127.103 127.214C132.443 124.477 128.489 126.336 132.921 126.189C131.945 125.314 130.375 125.3 128.91 125.063C127.824 121.516 128.185 121.004 126.393 120.96C125.706 122.33 125.536 122.116 124.052 122.732C124.621 124.183 125.215 126.254 124.022 127.955L122.918 129.291Z" fill="#F5B3B5"/>
<path fill-rule="evenodd" clip-rule="evenodd" d="M63.385 196.89C62.0195 196.157 58.4304 197.295 57.5139 195.789C57.4348 195.716 57.0728 195.467 57.0195 195.424L56.5533 195.032L52.869 195.852L53.2518 199.148C54.6872 199.578 57.5826 199.101 59.0965 198.953C61.5232 198.716 63.5684 199.304 63.385 196.89Z" fill="#231C37"/>
<path fill-rule="evenodd" clip-rule="evenodd" d="M14.4413 187.393C14.472 189.125 15.5583 191.108 16.1994 192.843C17.6925 196.887 17.2747 197.143 19.2831 196.724C17.9869 189.522 18.2979 192.309 19.3684 189.426L17.8734 186.353L14.4413 187.393Z" fill="#231C37"/>
<path fill-rule="evenodd" clip-rule="evenodd" d="M215.192 195.385C214.621 196.007 214.602 195.728 214.509 196.815C214.155 200.956 218.326 198.816 225.048 197.237L224.813 195.52C223.841 195.791 222.304 195.969 221.024 195.983C218.848 196.006 219.274 195.442 217.837 194.8C216.708 195.3 216.292 195.434 215.192 195.385Z" fill="#231C37"/>
<path fill-rule="evenodd" clip-rule="evenodd" d="M144.7 93.0577L143.448 92.9142L141.844 89.09C141.892 88.3196 142.327 87.7393 143.049 88.4631L142.866 91.2278L144.412 91.1505C144.909 90.196 144.272 90.3071 144.353 89.1103C144.434 87.9116 145.308 88.1576 145.53 88.2662C146.287 88.6355 145.505 89.2415 145.695 90.4255L146.015 91.3137L146.976 91.2787L147.28 90.1488L146.455 87.0602L140.232 86.8461L139.72 84.9604L141.035 85.0077C140.584 84.4513 141.592 84.5095 138.779 84.0427C138.998 86.3492 141.279 90.7653 142.403 92.7215C143.256 94.2054 143.88 94.1165 144.7 93.0577Z" fill="#E9B328"/>
<path fill-rule="evenodd" clip-rule="evenodd" d="M147.852 195.52C146.529 197.156 145.358 196.513 143.636 196.19C140.738 195.647 141.7 199.049 142.541 199.411C143.788 199.947 144.013 198.899 147.495 198.499C150.343 198.172 149.746 197.956 151.915 197.017C151.948 196.847 152.018 196.434 152.011 196.148C152.002 195.782 152.002 195.777 151.881 195.437L148.819 195.041C148.558 195.321 149.284 195.435 147.852 195.52Z" fill="#231C37"/>
<path fill-rule="evenodd" clip-rule="evenodd" d="M32.925 118.109C34.8162 119.621 33.3734 118.427 34.4524 119.55C35.7112 120.86 36.059 119.253 35.7106 123.051C34.496 122.635 34.4261 123.768 34.1095 120.297C33.5734 120.641 33.4047 120.661 32.8778 121.078L34.1997 120.722L34.5279 123.473L33.8096 123.898C35.5346 123.332 35.107 123.446 36.2989 122.297L36.6743 121.957C37.3024 122.51 36.8865 121.768 37.0025 122.765L37.4349 118.243C37.514 118.184 37.6386 118.006 37.6815 118.077C37.7226 118.147 37.8637 117.953 37.9202 117.918L39.0703 117.281C39.1415 116.333 39.2132 116.625 38.7354 115.475C38.3201 114.477 37.8564 114.464 36.278 113.502C36.9399 111.648 36.7767 112.582 36.654 111.858C36.5357 111.156 36.6178 111.511 36.3185 111.128C36.3945 112.301 36.1173 112.731 35.7259 113.756C35.2873 114.905 34.8187 115.052 35.5315 115.999L34.1568 116.64L34.7886 118.278L32.925 118.109Z" fill="#EFAF93"/>
<path fill-rule="evenodd" clip-rule="evenodd" d="M159.927 186.991C160.529 183.767 159.621 182.466 162.155 180.769L161.943 177.217C160.627 176.75 159.798 176.499 158.519 177.169L158.367 187.012L159.927 186.991Z" fill="#231C37"/>
<path fill-rule="evenodd" clip-rule="evenodd" d="M32.925 118.109L34.7886 118.278L34.1568 116.64L35.5315 115.998C34.8187 115.052 35.2873 114.905 35.7259 113.756C36.1173 112.731 36.3946 112.301 36.3185 111.128C34.9671 110.953 35.683 110.983 33.9807 111.658C33.1182 112 33.8599 111.511 33.0545 112.061L30.9136 114.075C30.9314 115.659 31.0596 114.978 31.5865 116.233C32.2527 117.821 31.4601 117.436 32.925 118.109Z" fill="#231C37"/>
<path fill-rule="evenodd" clip-rule="evenodd" d="M99.7708 196.615C101.671 198.26 99.5279 197.577 102.92 198.902L102.884 197.048L102.908 196.344C100.217 192.802 102.062 192.778 101.739 189.134L98.9807 189.119C97.7336 190.198 99.0543 191.835 99.2831 192.486C99.7107 193.701 99.9419 195.552 99.7708 196.615Z" fill="#231C37"/>
<path fill-rule="evenodd" clip-rule="evenodd" d="M59.4951 128.484L60.3428 130.993C62.5481 131.363 63.5921 131.475 65.8011 131.004C61.6071 126.947 63.5928 129.117 62.3266 126.663L59.4951 128.484Z" fill="#EFAF93"/>
<path fill-rule="evenodd" clip-rule="evenodd" d="M32.8783 121.078C31.8189 121.881 31.1404 122.502 30.2791 123.779C30.9429 124.873 32.6856 124.306 33.81 123.898L34.5284 123.473L34.2002 120.722L32.8783 121.078Z" fill="#03649C"/>
<path fill-rule="evenodd" clip-rule="evenodd" d="M199.668 114.66C198.846 115.226 198.266 116.577 199.366 117.146C199.999 117.474 200.988 116.569 202.043 116.441L202.121 115.358C201.213 114.385 200.947 113.971 200.028 113.362C199.691 113.917 199.706 113.371 199.668 114.66Z" fill="#EFAF93"/>
<path fill-rule="evenodd" clip-rule="evenodd" d="M192.444 121.45C192.446 121.452 192.883 122.935 195.404 122.795C197.27 122.692 196.961 121.839 196.783 120.077L192.444 121.45Z" fill="#03649C"/>
</svg>
